<svg width="16" height="16" viewBox="0 0 16 16" fill="none" xmlns="http://www.w3.org/2000/svg">
<path d="M15.7333 2.66667H13.8667V1.33334C13.8667 1.26261 13.8386 1.19479 13.7886 1.14478C13.7386 1.09477 13.6707 1.06667 13.6 1.06667H8.43147L7.97333 0.147471C7.95108 0.102938 7.91681 0.0655242 7.87439 0.0394625C7.83198 0.0134008 7.78312 -0.000267766 7.73333 3.97425e-06H0.266667C0.195942 3.97425e-06 0.128115 0.0280991 0.0781048 0.0781088C0.0280951 0.128119 0 0.195946 0 0.266671V14.6667C0.000423429 15.0202 0.141035 15.3591 0.390992 15.609C0.640949 15.859 0.979841 15.9996 1.33333 16H14.6667C15.0202 15.9996 15.3591 15.859 15.609 15.609C15.859 15.3591 15.9996 15.0202 16 14.6667V2.93334C16 2.86261 15.9719 2.79479 15.9219 2.74478C15.8719 2.69477 15.8041 2.66667 15.7333 2.66667ZM2.13333 2.93334V14.6667C2.13333 14.8788 2.04905 15.0823 1.89902 15.2324C1.74899 15.3824 1.54551 15.4667 1.33333 15.4667C1.12116 15.4667 0.917677 15.3824 0.767648 15.2324C0.617619 15.0823 0.533333 14.8788 0.533333 14.6667V0.533337H7.56853L8.02667 1.45254C8.04892 1.49707 8.08319 1.53448 8.12561 1.56055C8.16802 1.58661 8.21689 1.60028 8.26667 1.6H13.3333V2.66667H2.4C2.32928 2.66667 2.26145 2.69477 2.21144 2.74478C2.16143 2.79479 2.13333 2.86261 2.13333 2.93334ZM15.4667 14.6667C15.4667 14.8788 15.3824 15.0823 15.2324 15.2324C15.0823 15.3824 14.8788 15.4667 14.6667 15.4667H2.4C2.57334 15.236 2.66694 14.9552 2.66667 14.6667V3.2H15.4667V14.6667Z" fill="#A0AEC0"/>
<path d="M9.06689 13.3333C9.85802 13.3333 10.6314 13.0987 11.2892 12.6592C11.947 12.2197 12.4597 11.595 12.7624 10.864C13.0652 10.1331 13.1444 9.32888 12.99 8.55295C12.8357 7.77703 12.4547 7.0643 11.8953 6.50489C11.3359 5.94548 10.6232 5.56451 9.84726 5.41017C9.07133 5.25583 8.26707 5.33505 7.53616 5.6378C6.80526 5.94055 6.18054 6.45324 5.74102 7.11103C5.30149 7.76883 5.06689 8.54219 5.06689 9.33331C5.06809 10.3938 5.48991 11.4105 6.23979 12.1604C6.98968 12.9103 8.0064 13.3321 9.06689 13.3333ZM9.06689 5.86665C9.75254 5.86665 10.4228 6.06996 10.9929 6.45089C11.563 6.83181 12.0073 7.37323 12.2697 8.00668C12.5321 8.64013 12.6007 9.33716 12.467 10.0096C12.3332 10.6821 12.003 11.2998 11.5182 11.7846C11.0334 12.2694 10.4157 12.5996 9.74321 12.7334C9.07074 12.8671 8.37371 12.7985 7.74026 12.5361C7.10681 12.2737 6.56539 11.8294 6.18447 11.2593C5.80354 10.6892 5.60023 10.019 5.60023 9.33331C5.60129 8.41422 5.96686 7.53308 6.61676 6.88318C7.26666 6.23328 8.1478 5.86771 9.06689 5.86665Z" fill="#A0AEC0"/>
<path d="M10.2113 10.8552L10.5883 10.4781L9.33314 9.22295V6.93335H8.7998V9.33335C8.79982 9.40407 8.82792 9.47189 8.87794 9.52188L10.2113 10.8552Z" fill="#A0AEC0"/>
</svg>
