<svg width="220" height="192" viewBox="0 0 220 192" fill="none" xmlns="http://www.w3.org/2000/svg">
<path d="M19.7014 92.7706C20.3805 92.7706 20.9311 92.2198 20.9311 91.5403C20.9311 90.8608 20.3805 90.3099 19.7014 90.3099C19.0223 90.3099 18.4717 90.8608 18.4717 91.5403C18.4717 92.2198 19.0223 92.7706 19.7014 92.7706Z" fill="#CDA954"/>
<path d="M85.4592 40.4607C86.1384 40.4607 86.6889 39.9099 86.6889 39.2304C86.6889 38.5508 86.1384 38 85.4592 38C84.7801 38 84.2295 38.5508 84.2295 39.2304C84.2295 39.9099 84.7801 40.4607 85.4592 40.4607Z" fill="#CDA954"/>
<path d="M155.343 59.7627C156.022 59.7627 156.572 59.2119 156.572 58.5324C156.572 57.8529 156.022 57.302 155.343 57.302C154.664 57.302 154.113 57.8529 154.113 58.5324C154.113 59.2119 154.664 59.7627 155.343 59.7627Z" fill="#CDA954"/>
<path d="M158.23 117.461C158.909 117.461 159.459 116.91 159.459 116.23C159.459 115.551 158.909 115 158.23 115C157.551 115 157 115.551 157 116.23C157 116.91 157.551 117.461 158.23 117.461Z" fill="#CDA954"/>
<path opacity="0.5" d="M20.9277 146.731C21.6068 146.731 22.1574 146.18 22.1574 145.5C22.1574 144.821 21.6068 144.27 20.9277 144.27C20.2485 144.27 19.698 144.821 19.698 145.5C19.698 146.18 20.2485 146.731 20.9277 146.731Z" fill="#CDA954"/>
<path opacity="0.5" d="M208.206 122.769C208.885 122.769 209.435 122.218 209.435 121.538C209.435 120.859 208.885 120.308 208.206 120.308C207.527 120.308 206.976 120.859 206.976 121.538C206.976 122.218 207.527 122.769 208.206 122.769Z" fill="#CDA954"/>
<path d="M220 170.08H0C0 109.277 49.2532 60 109.997 60C170.74 60 220 109.277 220 170.08Z" fill="#171A23"/>
<path d="M128.799 157.801C128.799 157.801 145.181 134.937 146.461 101.628C147.214 82.0744 125.335 102.706 125.335 102.706L101.865 126.103C101.865 126.103 113.051 158.919 128.799 157.801Z" fill="#282B36"/>
<path d="M40.12 169.234C40.12 169.234 83.8926 166.737 115.848 163.407C115.848 163.407 141.605 161.971 122.257 139.302C122.257 139.302 142.98 128.768 145.975 100.956C145.975 100.956 145.601 92.5887 145.224 85.9706L141.856 48.1273L30.1272 57.8246L40.12 169.234Z" fill="#1A202C" stroke="#E5E5E3" stroke-width="2" stroke-miterlimit="10"/>
<path d="M57.5 157.5L115 2L136 4.5L143 157L57.5 157.5Z" fill="url(#paint0_linear_34_6)"/>
<path fill-rule="evenodd" clip-rule="evenodd" d="M115.195 1.18262C115.016 6.59632 119.014 11.3358 124.492 11.9829C129.969 12.6301 134.961 8.95274 136.05 3.64655L115.195 1.18262Z" fill="#CDA954"/>
<path d="M175 170V16.1938C175 11.6386 171.597 7.80165 167.074 7.25812L115 1" stroke="#4A5568" stroke-width="2" stroke-linecap="round"/>
<defs>
<linearGradient id="paint0_linear_34_6" x1="128.181" y1="10.1009" x2="132.3" y2="137.51" gradientUnits="userSpaceOnUse">
<stop stop-color="#CDA954" stop-opacity="0.51"/>
<stop offset="1" stop-color="#121319" stop-opacity="0"/>
</linearGradient>
</defs>
</svg>
