<svg width="16" height="16" viewBox="0 0 16 16" fill="none" xmlns="http://www.w3.org/2000/svg">
<g clip-path="url(#clip0_530_22)">
<mask id="mask0_530_22" style="mask-type:luminance" maskUnits="userSpaceOnUse" x="0" y="0" width="16" height="16">
<path d="M16.0001 0H0V16H16.0001V0Z" fill="white"/>
</mask>
<g mask="url(#mask0_530_22)">
<path d="M15.2378 7.23778H8.76252V0.762295C8.76252 0.341246 8.42127 0 8.00022 0C3.58874 0 0 3.58889 0 8.00007C0 12.4113 3.58874 16 8.00022 16C12.4114 16 16.0001 12.4113 16.0001 8.00007C16.0001 7.57903 15.6589 7.23778 15.2378 7.23778ZM8.00022 14.4754C4.42964 14.4754 1.52459 11.5707 1.52459 8.00007C1.52459 4.68722 4.02497 1.94757 7.23793 1.56925V8.00007C7.23793 8.42112 7.57917 8.76237 8.00022 8.76237H14.4309C14.0527 11.975 11.3129 14.4754 8.00022 14.4754Z" fill="#A0AEC0"/>
<path d="M15.2375 0H10.7096C10.2886 0 9.94727 0.341246 9.94727 0.762295C9.94727 1.18334 10.2886 1.52459 10.7096 1.52459H14.4752V5.29006C14.4752 5.71111 14.8165 6.05235 15.2375 6.05235C15.6586 6.05235 15.9998 5.71111 15.9998 5.29006V0.762295C15.9998 0.341246 15.6586 0 15.2375 0Z" fill="#A0AEC0"/>
</g>
</g>
<defs>
<clipPath id="clip0_530_22">
<rect width="16" height="16" fill="white"/>
</clipPath>
</defs>
</svg>
