<svg
  width="118"
  height="71"
  viewBox="0 0 118 71"
  fill="none"
  xmlns="http://www.w3.org/2000/svg"
>
  <path
    d="M53.888 52.517C53.632 52.517 53.416 52.437 53.24 52.2771C53.08 52.1012 53 51.8772 53 51.6053C53 51.3494 53.08 51.1415 53.24 50.9816C53.416 50.8056 53.632 50.7177 53.888 50.7177H56.408C57.16 50.7177 57.832 50.5817 58.424 50.3098C59.032 50.0219 59.504 49.63 59.84 49.1342C60.176 48.6384 60.344 48.0706 60.344 47.4308C60.344 46.7271 60.176 46.1033 59.84 45.5595C59.504 45.0157 59.032 44.5918 58.424 44.2879C57.832 43.9841 57.16 43.8321 56.408 43.8321H53.888C53.632 43.8321 53.416 43.7521 53.24 43.5922C53.08 43.4163 53 43.2003 53 42.9444C53 42.6725 53.08 42.4566 53.24 42.2967C53.416 42.1207 53.632 42.0327 53.888 42.0327H56.408V42.8005C57.528 42.8005 58.52 42.9844 59.384 43.3523C60.248 43.7042 60.928 44.232 61.424 44.9357C61.92 45.6395 62.168 46.5032 62.168 47.5268C62.168 48.5024 61.92 49.3661 61.424 50.1179C60.928 50.8696 60.248 51.4614 59.384 51.8932C58.52 52.3091 57.528 52.517 56.408 52.517H53.888ZM61.76 60.7701C61.568 60.7701 61.408 60.7301 61.28 60.6501C61.152 60.5542 61.04 60.4342 60.944 60.2902L55.616 51.8932L57.464 51.5574L62.504 59.3306C62.68 59.5865 62.752 59.8264 62.72 60.0503C62.704 60.2583 62.608 60.4342 62.432 60.5781C62.272 60.7061 62.048 60.7701 61.76 60.7701ZM53.912 48.2465C53.656 48.2305 53.44 48.1426 53.264 47.9826C53.088 47.8067 53 47.5908 53 47.3349C53 47.063 53.088 46.847 53.264 46.6871C53.44 46.5271 53.656 46.4472 53.912 46.4472H63.176C63.432 46.4472 63.648 46.5351 63.824 46.7111C64 46.871 64.088 47.0789 64.088 47.3349C64.088 47.5908 64 47.8067 63.824 47.9826C63.648 48.1426 63.432 48.2225 63.176 48.2225L53.912 48.2465ZM55.016 43.8321C54.744 43.8321 54.52 43.7521 54.344 43.5922C54.168 43.4163 54.08 43.1923 54.08 42.9204C54.08 42.6645 54.168 42.4566 54.344 42.2967C54.52 42.1207 54.744 42.0327 55.016 42.0327H63.176C63.432 42.0327 63.648 42.1207 63.824 42.2967C64 42.4566 64.088 42.6645 64.088 42.9204C64.088 43.1923 64 43.4163 63.824 43.5922C63.648 43.7521 63.432 43.8321 63.176 43.8321H55.016Z"
    fill="#CDA954"
  />
  <path
    d="M77 51.0296C77 60.9666 68.9415 69.0228 59 69.0228C49.0585 69.0228 41 60.9666 41 51.0296C41 41.0925 49.0585 33.0363 59 33.0363C68.9415 33.0363 77 41.0925 77 51.0296Z"
    stroke="#EDF2F7"
    stroke-width="2"
  />
  <path
    d="M103.541 41.7659C103.38 41.7659 103.243 41.7154 103.132 41.6144C103.031 41.5033 102.98 41.3618 102.98 41.1901C102.98 41.0285 103.031 40.8972 103.132 40.7961C103.243 40.685 103.38 40.6295 103.541 40.6295H105.133C105.608 40.6295 106.032 40.5436 106.406 40.3719C106.79 40.19 107.088 39.9425 107.3 39.6294C107.513 39.3162 107.619 38.9576 107.619 38.5536C107.619 38.1091 107.513 37.7151 107.3 37.3717C107.088 37.0282 106.79 36.7605 106.406 36.5686C106.032 36.3767 105.608 36.2807 105.133 36.2807H103.541C103.38 36.2807 103.243 36.2302 103.132 36.1292C103.031 36.0181 102.98 35.8817 102.98 35.7201C102.98 35.5483 103.031 35.4119 103.132 35.3109C103.243 35.1998 103.38 35.1443 103.541 35.1443H105.133V35.6291C105.84 35.6291 106.467 35.7453 107.012 35.9776C107.558 36.1999 107.988 36.5332 108.301 36.9777C108.614 37.4222 108.771 37.9677 108.771 38.6142C108.771 39.2304 108.614 39.7759 108.301 40.2506C107.988 40.7254 107.558 41.0992 107.012 41.3719C106.467 41.6346 105.84 41.7659 105.133 41.7659H103.541ZM108.513 46.9784C108.392 46.9784 108.291 46.9531 108.21 46.9026C108.129 46.842 108.058 46.7662 107.998 46.6753L104.633 41.3719L105.8 41.1598L108.983 46.0692C109.094 46.2308 109.14 46.3824 109.119 46.5238C109.109 46.6551 109.049 46.7662 108.938 46.8571C108.836 46.938 108.695 46.9784 108.513 46.9784ZM103.556 39.0688C103.395 39.0587 103.258 39.0031 103.147 38.9021C103.036 38.791 102.98 38.6546 102.98 38.493C102.98 38.3212 103.036 38.1849 103.147 38.0838C103.258 37.9828 103.395 37.9323 103.556 37.9323H109.407C109.569 37.9323 109.706 37.9879 109.817 38.099C109.928 38.2 109.983 38.3313 109.983 38.493C109.983 38.6546 109.928 38.791 109.817 38.9021C109.706 39.0031 109.569 39.0536 109.407 39.0536L103.556 39.0688ZM104.254 36.2807C104.082 36.2807 103.94 36.2302 103.829 36.1292C103.718 36.0181 103.663 35.8766 103.663 35.7049C103.663 35.5433 103.718 35.4119 103.829 35.3109C103.94 35.1998 104.082 35.1443 104.254 35.1443H109.407C109.569 35.1443 109.706 35.1998 109.817 35.3109C109.928 35.4119 109.983 35.5433 109.983 35.7049C109.983 35.8766 109.928 36.0181 109.817 36.1292C109.706 36.2302 109.569 36.2807 109.407 36.2807H104.254Z"
    fill="#718096"
  />
  <path
    d="M117 40.0334C117 46.1059 112.075 51.0292 106 51.0292C99.9245 51.0292 95 46.1059 95 40.0334C95 33.961 99.9245 29.0377 106 29.0377C112.075 29.0377 117 33.961 117 40.0334Z"
    stroke="#718096"
    stroke-width="2"
  />
  <path
    d="M23 40.0334C23 46.1059 18.0755 51.0292 12 51.0292C5.92453 51.0292 1 46.1059 1 40.0334C1 33.961 5.92453 29.0377 12 29.0377C18.0755 29.0377 23 33.961 23 40.0334Z"
    stroke="#718096"
    stroke-width="2"
  />
  <line
    x1="3.5"
    y1="6.54556"
    x2="3.5"
    y2="25.5384"
    stroke="#718096"
    stroke-linecap="round"
  />
  <line
    x1="12.5"
    y1="8.54486"
    x2="12.5"
    y2="19.5406"
    stroke="#718096"
    stroke-linecap="round"
  />
  <line
    x1="12.5"
    y1="0.547699"
    x2="12.5"
    y2="5.54556"
    stroke="#718096"
    stroke-linecap="round"
  />
  <line
    x1="0.5"
    y1="-0.5"
    x2="19.4929"
    y2="-0.5"
    transform="matrix(4.37268e-08 1 1 -4.36957e-08 115 6.04556)"
    stroke="#718096"
    stroke-linecap="round"
  />
  <line
    x1="0.5"
    y1="-0.5"
    x2="11.4957"
    y2="-0.5"
    transform="matrix(-4.37269e-08 1 1 4.36958e-08 106 8.04486)"
    stroke="#718096"
    stroke-linecap="round"
  />
  <line
    x1="0.5"
    y1="-0.5"
    x2="5.49786"
    y2="-0.5"
    transform="matrix(-4.37115e-08 1 1 4.37115e-08 106 0.047699)"
    stroke="#718096"
    stroke-linecap="round"
  />
  <path
    d="M9.64731 41.54C9.46667 41.54 9.31111 41.4734 9.18065 41.3403C9.06021 41.2072 9 41.0297 9 40.8078C9 40.5971 9.06021 40.4251 9.18065 40.292C9.31111 40.1478 9.46667 40.0757 9.64731 40.0757H11.0172C11.4789 40.0757 11.8903 39.9814 12.2516 39.7928C12.6129 39.6042 12.8939 39.3491 13.0946 39.0274C13.3054 38.6946 13.4108 38.3175 13.4108 37.8959C13.4108 37.43 13.3054 37.0196 13.0946 36.6646C12.8939 36.2985 12.6129 36.0157 12.2516 35.816C11.8903 35.6052 11.4789 35.4999 11.0172 35.4999H9.64731C9.46667 35.4999 9.31111 35.4333 9.18065 35.3002C9.06021 35.156 9 34.984 9 34.7844C9 34.5625 9.06021 34.385 9.18065 34.2519C9.31111 34.1077 9.46667 34.0356 9.64731 34.0356H11.0172V34.6512C11.7498 34.6512 12.3971 34.7788 12.9591 35.0339C13.5312 35.2891 13.9778 35.6662 14.2989 36.1654C14.6201 36.6535 14.7806 37.2692 14.7806 38.0124C14.7806 38.7002 14.6201 39.3103 14.2989 39.8427C13.9778 40.3752 13.5312 40.7912 12.9591 41.0907C12.3971 41.3902 11.7498 41.54 11.0172 41.54H9.64731ZM14.5699 47.031C14.4394 47.031 14.324 46.9977 14.2237 46.9311C14.1233 46.8646 14.033 46.7703 13.9527 46.6483L10.6409 41.074L12.0108 40.6913L15.1269 45.8329C15.2473 46.0326 15.2975 46.2267 15.2774 46.4153C15.2573 46.5928 15.1871 46.7425 15.0667 46.8646C14.9462 46.9755 14.7806 47.031 14.5699 47.031ZM9.69247 38.5116C9.49176 38.5116 9.32616 38.445 9.1957 38.3119C9.06523 38.1788 9 38.0013 9 37.7794C9 37.5576 9.06523 37.3856 9.1957 37.2636C9.32616 37.1305 9.49176 37.064 9.69247 37.064H15.3075C15.5082 37.064 15.6738 37.1305 15.8043 37.2636C15.9348 37.3967 16 37.5687 16 37.7794C16 38.0013 15.9348 38.1788 15.8043 38.3119C15.6738 38.445 15.5082 38.5116 15.3075 38.5116H9.69247ZM10.5355 35.4999C10.3348 35.4999 10.1692 35.4333 10.0387 35.3002C9.90824 35.1671 9.84301 34.9896 9.84301 34.7677C9.84301 34.5459 9.90824 34.3684 10.0387 34.2353C10.1692 34.1021 10.3348 34.0356 10.5355 34.0356H15.3075C15.5082 34.0356 15.6738 34.1077 15.8043 34.2519C15.9348 34.385 16 34.557 16 34.7677C16 34.9896 15.9348 35.1671 15.8043 35.3002C15.6738 35.4333 15.5082 35.4999 15.3075 35.4999H10.5355Z"
    fill="#718096"
  />
</svg>