<svg
  width="191"
  height="107"
  viewBox="0 0 191 107"
  fill="none"
  xmlns="http://www.w3.org/2000/svg"
>
  <path
    d="M79.4528 34.8559L79.6153 34.383L79.4528 34.8559ZM41.6792 63.2227L41.3637 63.6106L41.6792 63.2227ZM89 1.06601L88.983 1.56572L89 1.06601ZM190.183 50.9746C190.44 50.8734 190.566 50.583 190.465 50.3261L188.815 46.1396C188.714 45.8826 188.424 45.7565 188.167 45.8577C187.91 45.959 187.784 46.2493 187.885 46.5062L189.351 50.2276L185.63 51.6943C185.373 51.7956 185.247 52.086 185.348 52.3429C185.45 52.5998 185.74 52.7259 185.997 52.6247L190.183 50.9746ZM4.08096 106.459C4.35707 106.463 4.58412 106.243 4.58809 105.967C4.59206 105.69 4.37144 105.463 4.09532 105.459L4.08096 106.459ZM10.0211 104.91C9.75111 104.968 9.57898 105.234 9.63669 105.504C9.6944 105.774 9.9601 105.946 10.2301 105.888L10.0211 104.91ZM16.0554 103.781C16.2992 103.651 16.3918 103.349 16.2621 103.105C16.1325 102.861 15.8297 102.768 15.5859 102.898L16.0554 103.781ZM20.393 99.4056C20.1929 99.5958 20.185 99.9123 20.3753 100.112C20.5656 100.313 20.882 100.321 21.0822 100.13L20.393 99.4056ZM25.0658 95.4072C25.2224 95.1797 25.1649 94.8684 24.9374 94.7118C24.71 94.5552 24.3987 94.6127 24.2421 94.8401L25.0658 95.4072ZM27.2749 89.6394C27.1515 89.8865 27.2518 90.1867 27.4988 90.3101C27.7459 90.4335 28.0462 90.3332 28.1695 90.0862L27.2749 89.6394ZM30.6485 84.4631C30.7495 84.2061 30.623 83.9159 30.366 83.8149C30.1089 83.714 29.8187 83.8405 29.7178 84.0975L30.6485 84.4631ZM31.7696 78.3932C31.6823 78.6552 31.8241 78.9383 32.0861 79.0255C32.3481 79.1127 32.6312 78.971 32.7184 78.709L31.7696 78.3932ZM34.5606 72.8792C34.6409 72.615 34.4917 72.3357 34.2275 72.2555C33.9632 72.1753 33.684 72.3244 33.6038 72.5887L34.5606 72.8792ZM35.3521 66.7507C35.273 67.0152 35.4233 67.2939 35.6878 67.373C35.9524 67.4522 36.231 67.3019 36.3102 67.0373L35.3521 66.7507ZM38.0947 61.2214C38.1786 60.9583 38.0332 60.677 37.7701 60.5932C37.507 60.5093 37.2258 60.6546 37.1419 60.9178L38.0947 61.2214ZM39.1128 55.1184C39.0177 55.3777 39.1509 55.6649 39.4101 55.76C39.6694 55.855 39.9566 55.7219 40.0517 55.4626L39.1128 55.1184ZM42.327 49.8615C42.4414 49.6101 42.3303 49.3137 42.0789 49.1994C41.8275 49.0851 41.5311 49.1962 41.4168 49.4475L42.327 49.8615ZM44.2816 43.9926C44.1373 44.2281 44.2112 44.5359 44.4467 44.6802C44.6822 44.8245 44.99 44.7505 45.1342 44.5151L44.2816 43.9926ZM48.7025 39.7038C48.8886 39.4998 48.8741 39.1836 48.6701 38.9975C48.4661 38.8114 48.1499 38.8259 47.9637 39.0299L48.7025 39.7038ZM52.6863 35.0174C52.4533 35.1657 52.3846 35.4747 52.5329 35.7077C52.6811 35.9407 52.9902 36.0094 53.2231 35.8611L52.6863 35.0174ZM58.6309 33.4576C58.8969 33.3835 59.0525 33.1078 58.9784 32.8418C58.9042 32.5757 58.6285 32.4202 58.3625 32.4943L58.6309 33.4576ZM64.499 31.6232C64.2229 31.6292 64.004 31.8579 64.01 32.134C64.016 32.41 64.2447 32.629 64.5207 32.623L64.499 31.6232ZM70.4829 33.0617C70.7556 33.105 71.0118 32.919 71.0552 32.6463C71.0985 32.3736 70.9125 32.1174 70.6398 32.074L70.4829 33.0617ZM76.6104 33.4301C76.3452 33.3534 76.0679 33.5061 75.9911 33.7714C75.9143 34.0366 76.0671 34.3139 76.3323 34.3907L76.6104 33.4301ZM82.1922 36.4001C82.4489 36.5019 82.7395 36.3764 82.8413 36.1197C82.9432 35.8631 82.8177 35.5724 82.561 35.4706L82.1922 36.4001ZM88.1445 38.0593C87.9019 37.9274 87.5983 38.0171 87.4664 38.2596C87.3344 38.5022 87.4241 38.8058 87.6667 38.9378L88.1445 38.0593ZM92.6861 42.2508C92.9002 42.4251 93.2152 42.3928 93.3895 42.1787C93.5639 41.9646 93.5316 41.6496 93.3175 41.4753L92.6861 42.2508ZM97.5669 46.0653C97.4155 45.8343 97.1056 45.7699 96.8747 45.9213C96.6437 46.0727 96.5792 46.3826 96.7306 46.6135L97.5669 46.0653ZM98.7541 52.083C98.7824 52.3577 99.028 52.5574 99.3027 52.5291C99.5774 52.5008 99.7771 52.2551 99.7488 51.9804L98.7541 52.083ZM98.7781 58.207C98.8841 57.952 98.7634 57.6594 98.5084 57.5533C98.2534 57.4473 97.9608 57.568 97.8547 57.8229L98.7781 58.207ZM94.6023 62.7678C94.4153 62.9709 94.4283 63.2872 94.6314 63.4743C94.8345 63.6613 95.1509 63.6483 95.3379 63.4452L94.6023 62.7678ZM90.5724 67.4633C90.8023 67.3103 90.8647 66.9999 90.7117 66.77C90.5587 66.5401 90.2483 66.4778 90.0184 66.6308L90.5724 67.4633ZM84.7017 69.4793C84.4476 69.5876 84.3294 69.8813 84.4376 70.1353C84.5459 70.3894 84.8396 70.5076 85.0936 70.3993L84.7017 69.4793ZM79.2121 72.3617C79.48 72.295 79.6432 72.0237 79.5764 71.7557C79.5097 71.4877 79.2384 71.3246 78.9705 71.3913L79.2121 72.3617ZM73.0125 72.4114C72.7376 72.4379 72.5362 72.6822 72.5628 72.9571C72.5893 73.232 72.8336 73.4333 73.1085 73.4068L73.0125 72.4114ZM66.9198 73.554C67.1957 73.5674 67.4301 73.3546 67.4434 73.0788C67.4568 72.803 67.244 72.5686 66.9682 72.5552L66.9198 73.554ZM60.9648 71.8277C60.6938 71.7747 60.4312 71.9515 60.3782 72.2226C60.3253 72.4936 60.5021 72.7562 60.7731 72.8091L60.9648 71.8277ZM54.7915 71.1838C55.052 71.2753 55.3374 71.1382 55.4289 70.8777C55.5203 70.6171 55.3833 70.3318 55.1227 70.2403L54.7915 71.1838ZM49.579 67.8366C49.334 67.709 49.0321 67.8042 48.9046 68.0491C48.7771 68.2941 48.8722 68.596 49.1172 68.7235L49.579 67.8366ZM43.84 65.494C44.0652 65.6538 44.3773 65.6008 44.5371 65.3756C44.6969 65.1504 44.6439 64.8383 44.4187 64.6785L43.84 65.494ZM39.6551 60.8344C39.4499 60.6497 39.1337 60.6663 38.949 60.8716C38.7643 61.0768 38.7809 61.393 38.9862 61.5777L39.6551 60.8344ZM34.6074 57.1643C34.7896 57.3718 35.1055 57.3924 35.313 57.2102C35.5206 57.0281 35.5412 56.7122 35.359 56.5046L34.6074 57.1643ZM31.6932 51.6716C31.5438 51.4393 31.2345 51.3721 31.0022 51.5214C30.7699 51.6708 30.7027 51.9801 30.852 52.2124L31.6932 51.6716ZM27.9671 46.6772C28.0702 46.9334 28.3614 47.0575 28.6176 46.9544C28.8738 46.8514 28.9979 46.5601 28.8948 46.304L27.9671 46.6772ZM27.2824 40.4897C27.2406 40.2167 26.9854 40.0294 26.7124 40.0712C26.4395 40.113 26.2521 40.3682 26.2939 40.6412L27.2824 40.4897ZM26.1389 34.3749C26.1101 34.6496 26.3093 34.8956 26.5839 34.9245C26.8586 34.9533 27.1046 34.7541 27.1334 34.4794L26.1389 34.3749ZM28.5213 28.6262C28.6179 28.3675 28.4866 28.0795 28.2279 27.9828C27.9692 27.8862 27.6811 28.0176 27.5845 28.2763L28.5213 28.6262ZM30.4301 22.7014C30.2787 22.9323 30.3432 23.2423 30.5741 23.3937C30.805 23.5451 31.115 23.4806 31.2664 23.2496L30.4301 22.7014ZM35.0537 18.5252C35.2449 18.326 35.2384 18.0095 35.0392 17.8182C34.84 17.627 34.5235 17.6335 34.3322 17.8327L35.0537 18.5252ZM38.9839 13.6882C38.7648 13.8564 38.7236 14.1703 38.8917 14.3893C39.0598 14.6084 39.3737 14.6496 39.5928 14.4815L38.9839 13.6882ZM44.662 11.0869C44.9004 10.9475 44.9806 10.6413 44.8412 10.4029C44.7017 10.1645 44.3955 10.0843 44.1571 10.2237L44.662 11.0869ZM49.6679 7.38973C49.4162 7.5032 49.3041 7.79927 49.4176 8.05102C49.531 8.30277 49.8271 8.41487 50.0789 8.3014L49.6679 7.38973ZM55.7605 6.05477C56.0216 5.96484 56.1603 5.68028 56.0704 5.41919C55.9805 5.1581 55.6959 5.01935 55.4348 5.10928L55.7605 6.05477ZM61.3817 3.33236C61.1142 3.40082 60.9528 3.67319 61.0213 3.94071C61.0897 4.20823 61.3621 4.3696 61.6296 4.30113L61.3817 3.33236ZM67.6037 3.00548C67.8755 2.95663 68.0562 2.69671 68.0074 2.42492C67.9585 2.15313 67.6986 1.9724 67.4268 2.02124L67.6037 3.00548ZM73.5565 1.13166C73.2821 1.16236 73.0845 1.40971 73.1152 1.68414C73.1459 1.95857 73.3932 2.15616 73.6677 2.12546L73.5565 1.13166ZM79.7833 1.63305C80.0591 1.61922 80.2715 1.38444 80.2576 1.10864C80.2438 0.832848 80.009 0.620479 79.7332 0.634304L79.7833 1.63305ZM85.9075 0.502578C85.6313 0.500704 85.406 0.723038 85.4041 0.999174C85.4022 1.27531 85.6246 1.50068 85.9007 1.50256L85.9075 0.502578ZM91.8704 1.69524C92.1462 1.7106 92.3821 1.49955 92.3975 1.22383C92.4129 0.94812 92.2018 0.712152 91.9261 0.696786L91.8704 1.69524ZM97.6841 1.14493C97.4093 1.11737 97.1642 1.31776 97.1367 1.59253C97.1091 1.86729 97.3095 2.11237 97.5843 2.13994L97.6841 1.14493ZM103.27 2.842C103.543 2.88218 103.797 2.69328 103.837 2.42007C103.878 2.14687 103.689 1.89282 103.415 1.85264L103.27 2.842ZM109.105 2.82742C108.835 2.77431 108.572 2.95093 108.519 3.22192C108.466 3.49291 108.642 3.75564 108.913 3.80875L109.105 2.82742ZM114.499 5.04493C114.767 5.11117 115.038 4.94755 115.104 4.67947C115.17 4.41139 115.007 4.14037 114.739 4.07413L114.499 5.04493ZM120.322 5.60163C120.058 5.52216 119.779 5.67212 119.699 5.93658C119.62 6.20104 119.77 6.47985 120.034 6.55932L120.322 5.60163ZM125.483 8.34653C125.744 8.43913 126.03 8.30329 126.122 8.04314C126.215 7.78298 126.079 7.49702 125.819 7.40443L125.483 8.34653ZM131.21 9.47622C130.955 9.37079 130.663 9.49223 130.557 9.74745C130.452 10.0027 130.573 10.295 130.828 10.4005L131.21 9.47622ZM136.064 12.7157C136.314 12.8336 136.612 12.7266 136.73 12.4769C136.848 12.2271 136.741 11.9291 136.491 11.8113L136.064 12.7157ZM141.664 14.4057C141.42 14.2761 141.117 14.3686 140.988 14.6124C140.858 14.8563 140.951 15.159 141.194 15.2886L141.664 14.4057ZM146.185 18.0916C146.423 18.2322 146.729 18.1536 146.87 17.916C147.011 17.6783 146.932 17.3717 146.694 17.231L146.185 18.0916ZM151.607 20.2857C151.375 20.1349 151.066 20.2002 150.915 20.4316C150.764 20.6629 150.829 20.9727 151.061 21.1235L151.607 20.2857ZM155.793 24.3468C156.019 24.5067 156.331 24.4538 156.491 24.2286C156.65 24.0035 156.598 23.6914 156.372 23.5315L155.793 24.3468ZM161.026 26.9649C160.807 26.7971 160.493 26.8389 160.325 27.0583C160.157 27.2776 160.199 27.5914 160.418 27.7592L161.026 26.9649ZM164.922 31.3156C165.136 31.4899 165.451 31.4575 165.625 31.2432C165.799 31.029 165.767 30.7141 165.553 30.5398L164.922 31.3156ZM169.977 34.2265C169.766 34.0475 169.451 34.0729 169.272 34.2832C169.093 34.4935 169.118 34.809 169.329 34.988L169.977 34.2265ZM173.681 38.7436C173.889 38.925 174.205 38.9032 174.386 38.695C174.568 38.4867 174.546 38.1709 174.338 37.9895L173.681 38.7436ZM178.683 41.7646C178.473 41.5845 178.158 41.6083 177.978 41.8177C177.798 42.0271 177.821 42.3428 178.031 42.5228L178.683 41.7646ZM182.48 46.2257C182.696 46.3972 183.011 46.3607 183.182 46.1443C183.354 45.9279 183.317 45.6134 183.101 45.4419L182.48 46.2257ZM187.731 48.747C187.495 48.6032 187.188 48.6777 187.044 48.9134C186.9 49.1491 186.974 49.4568 187.21 49.6006L187.731 48.747ZM0.948297 106.27C2.02834 106.383 3.07201 106.445 4.08096 106.459L4.09532 105.459C3.11763 105.445 2.10371 105.385 1.0517 105.276L0.948297 106.27ZM10.2301 105.888C12.3558 105.434 14.2894 104.72 16.0554 103.781L15.5859 102.898C13.9029 103.793 12.0571 104.475 10.0211 104.91L10.2301 105.888ZM21.0822 100.13C22.5515 98.733 23.8695 97.1449 25.0658 95.4072L24.2421 94.8401C23.0788 96.53 21.8047 98.0632 20.393 99.4056L21.0822 100.13ZM28.1695 90.0862C29.0637 88.2956 29.8831 86.4117 30.6485 84.4631L29.7178 84.0975C28.9607 86.0247 28.1532 87.8807 27.2749 89.6394L28.1695 90.0862ZM32.7184 78.709C33.356 76.7931 33.9646 74.8419 34.5606 72.8792L33.6038 72.5887C33.0091 74.547 32.4033 76.4889 31.7696 78.3932L32.7184 78.709ZM36.3102 67.0373C36.8955 65.0812 37.4847 63.1357 38.0947 61.2214L37.1419 60.9178C36.5291 62.8408 35.9379 64.793 35.3521 66.7507L36.3102 67.0373ZM40.0517 55.4626C40.7621 53.5246 41.514 51.6491 42.327 49.8615L41.4168 49.4475C40.5911 51.263 39.8297 53.1625 39.1128 55.1184L40.0517 55.4626ZM45.1342 44.5151C46.2144 42.7521 47.395 41.137 48.7025 39.7038L47.9637 39.0299C46.6064 40.5176 45.3888 42.1855 44.2816 43.9926L45.1342 44.5151ZM53.2231 35.8611C54.8515 34.8251 56.6438 34.0112 58.6309 33.4576L58.3625 32.4943C56.2792 33.0747 54.3965 33.9293 52.6863 35.0174L53.2231 35.8611ZM64.5207 32.623C66.3649 32.5829 68.3475 32.7224 70.4829 33.0617L70.6398 32.074C68.4517 31.7264 66.4091 31.5817 64.499 31.6232L64.5207 32.623ZM76.3323 34.3907C77.292 34.6685 78.2777 34.9808 79.2904 35.3287L79.6153 34.383C78.588 34.03 77.5866 33.7128 76.6104 33.4301L76.3323 34.3907ZM79.2904 35.3287C80.3015 35.6762 81.2684 36.0336 82.1922 36.4001L82.561 35.4706C81.6221 35.098 80.6405 34.7353 79.6153 34.383L79.2904 35.3287ZM87.6667 38.9378C89.618 39.9991 91.2837 41.109 92.6861 42.2508L93.3175 41.4753C91.8609 40.2894 90.1424 39.146 88.1445 38.0593L87.6667 38.9378ZM96.7306 46.6135C97.919 48.4262 98.5667 50.2663 98.7541 52.083L99.7488 51.9804C99.5438 49.9927 98.8362 48.0014 97.5669 46.0653L96.7306 46.6135ZM97.8547 57.8229C97.1383 59.5455 96.0355 61.2116 94.6023 62.7678L95.3379 63.4452C96.8376 61.8167 98.01 60.0536 98.7781 58.207L97.8547 57.8229ZM90.0184 66.6308C88.4133 67.6989 86.6293 68.6581 84.7017 69.4793L85.0936 70.3993C87.0745 69.5554 88.9131 68.5675 90.5724 67.4633L90.0184 66.6308ZM78.9705 71.3913C77.061 71.8667 75.0667 72.2133 73.0125 72.4114L73.1085 73.4068C75.2119 73.2039 77.2548 72.849 79.2121 72.3617L78.9705 71.3913ZM66.9682 72.5552C64.9912 72.4595 62.9837 72.222 60.9648 71.8277L60.7731 72.8091C62.8403 73.2129 64.8957 73.456 66.9198 73.554L66.9682 72.5552ZM55.1227 70.2403C53.2641 69.5878 51.4112 68.7905 49.579 67.8366L49.1172 68.7235C50.992 69.6996 52.8885 70.5158 54.7915 71.1838L55.1227 70.2403ZM44.4187 64.6785C43.603 64.0997 42.7946 63.4855 41.9948 62.8348L41.3637 63.6106C42.1804 64.275 43.0064 64.9025 43.84 65.494L44.4187 64.6785ZM41.9948 62.8348C41.1794 62.1715 40.3997 61.5045 39.6551 60.8344L38.9862 61.5777C39.7435 62.2593 40.5359 62.9371 41.3637 63.6106L41.9948 62.8348ZM35.359 56.5046C33.9512 54.9007 32.7319 53.2871 31.6932 51.6716L30.852 52.2124C31.9194 53.8726 33.1692 55.5257 34.6074 57.1643L35.359 56.5046ZM28.8948 46.304C28.1097 44.3526 27.5767 42.4101 27.2824 40.4897L26.2939 40.6412C26.6004 42.641 27.1545 44.6577 27.9671 46.6772L28.8948 46.304ZM27.1334 34.4794C27.3429 32.4865 27.8101 30.5302 28.5213 28.6262L27.5845 28.2763C26.8448 30.2566 26.3575 32.2953 26.1389 34.3749L27.1334 34.4794ZM31.2664 23.2496C32.3385 21.6143 33.6043 20.0351 35.0537 18.5252L34.3322 17.8327C32.8432 19.384 31.5382 21.011 30.4301 22.7014L31.2664 23.2496ZM39.5928 14.4815C41.1525 13.2843 42.8446 12.1499 44.662 11.0869L44.1571 10.2237C42.3057 11.3066 40.5786 12.4642 38.9839 13.6882L39.5928 14.4815ZM50.0789 8.3014C51.8827 7.48838 53.7783 6.73751 55.7605 6.05477L55.4348 5.10928C53.4248 5.8016 51.5007 6.56366 49.6679 7.38973L50.0789 8.3014ZM61.6296 4.30113C63.5563 3.80806 65.5489 3.37473 67.6037 3.00548L67.4268 2.02124C65.3488 2.39468 63.3324 2.83312 61.3817 3.33236L61.6296 4.30113ZM73.6677 2.12546C75.6581 1.90285 77.6976 1.73761 79.7833 1.63305L79.7332 0.634304C77.6274 0.739864 75.5676 0.906735 73.5565 1.13166L73.6677 2.12546ZM85.9007 1.50256C86.9187 1.50946 87.9462 1.53041 88.983 1.56572L89.017 0.566304C87.9712 0.530678 86.9346 0.509548 85.9075 0.502578L85.9007 1.50256ZM88.983 1.56572C89.9545 1.59882 90.917 1.6421 91.8704 1.69524L91.9261 0.696786C90.9654 0.643244 89.9957 0.599646 89.017 0.566304L88.983 1.56572ZM97.5843 2.13994C99.5181 2.33392 101.413 2.56892 103.27 2.842L103.415 1.85264C101.543 1.57732 99.6332 1.34044 97.6841 1.14493L97.5843 2.13994ZM108.913 3.80875C110.817 4.18186 112.678 4.59511 114.499 5.04493L114.739 4.07413C112.902 3.62044 111.025 3.20368 109.105 2.82742L108.913 3.80875ZM120.034 6.55932C121.896 7.11874 123.712 7.71594 125.483 8.34653L125.819 7.40443C124.032 6.76833 122.2 6.16592 120.322 5.60163L120.034 6.55932ZM130.828 10.4005C132.622 11.1412 134.366 11.9147 136.064 12.7157L136.491 11.8113C134.779 11.0035 133.019 10.2233 131.21 9.47622L130.828 10.4005ZM141.194 15.2886C142.908 16.1999 144.571 17.1364 146.185 18.0916L146.694 17.231C145.068 16.2684 143.392 15.3244 141.664 14.4057L141.194 15.2886ZM151.061 21.1235C152.692 22.1867 154.268 23.2638 155.793 24.3468L156.372 23.5315C154.837 22.4413 153.249 21.3567 151.607 20.2857L151.061 21.1235ZM160.418 27.7592C161.977 28.9514 163.477 30.1404 164.922 31.3156L165.553 30.5398C164.101 29.3592 162.594 28.1639 161.026 26.9649L160.418 27.7592ZM169.329 34.988C170.844 36.2777 172.293 37.5346 173.681 38.7436L174.338 37.9895C172.949 36.7798 171.496 35.5199 169.977 34.2265L169.329 34.988ZM178.031 42.5228C179.594 43.8666 181.074 45.1116 182.48 46.2257L183.101 45.4419C181.71 44.34 180.241 43.1048 178.683 41.7646L178.031 42.5228ZM187.21 49.6006C188.099 50.1432 188.962 50.6035 189.801 50.968L190.199 50.0509C189.412 49.7087 188.59 49.2714 187.731 48.747L187.21 49.6006Z"
    fill="#cda954"
  />
</svg>