<svg
  width="102"
  height="73"
  viewBox="0 0 102 73"
  fill="none"
  xmlns="http://www.w3.org/2000/svg"
>
  <rect
    x="4.58984"
    y="11.8689"
    width="96.4091"
    height="59.8693"
    rx="3"
    fill="black"
    stroke="#718096"
    stroke-width="2"
  />
  <rect
    x="1"
    y="7.6886"
    width="96.4091"
    height="59.8693"
    rx="3"
    fill="black"
    stroke="#718096"
    stroke-width="2"
  />
  <path
    d="M78.5781 2.87326C78.5781 1.83869 79.4168 1 80.4514 1C81.486 1 82.3246 1.83869 82.3246 2.87326V7.36071H78.5781V2.87326Z"
    stroke="#718096"
    stroke-width="2"
  />
  <path
    d="M18.2383 2.87326C18.2383 1.83869 19.077 1 20.1115 1C21.1461 1 21.9848 1.83869 21.9848 2.87326V7.36071H18.2383V2.87326Z"
    stroke="#718096"
    stroke-width="2"
  />
  <rect
    x="7.46484"
    y="16.0493"
    width="13.0846"
    height="11.3771"
    rx="3"
    stroke="#CDA954"
    stroke-width="2"
  />
  <rect
    x="30.4512"
    y="16.0493"
    width="13.0846"
    height="11.3771"
    rx="3"
    stroke="#718096"
    stroke-width="2"
  />
  <rect
    x="53.4375"
    y="16.0493"
    width="13.0846"
    height="11.3771"
    rx="3"
    stroke="#718096"
    stroke-width="2"
  />
  <rect
    x="76.4219"
    y="16.0493"
    width="13.0846"
    height="11.3771"
    rx="3"
    stroke="#718096"
    stroke-width="2"
  />
  <rect
    x="30.4512"
    y="41.1315"
    width="13.0846"
    height="11.3771"
    rx="3"
    stroke="#718096"
    stroke-width="2"
  />
  <rect
    x="76.4219"
    y="41.1315"
    width="13.0846"
    height="11.3771"
    rx="3"
    stroke="#718096"
    stroke-width="2"
  />
  <rect
    x="7.46484"
    y="41.1314"
    width="13.0846"
    height="11.3771"
    rx="3"
    stroke="#718096"
    stroke-width="2"
  />
  <rect
    x="54.875"
    y="41.1315"
    width="13.0846"
    height="11.3771"
    rx="3"
    stroke="#CDA954"
    stroke-width="2"
  />
</svg>