<svg width="156" height="41" viewBox="0 0 156 41" fill="none" xmlns="http://www.w3.org/2000/svg">
    <path d="M40.7784 17.5C40.6612 17.1413 40.5067 16.82 40.315 16.5359C40.1268 16.2482 39.9013 16.0032 39.6385 15.8008C39.3793 15.5984 39.0845 15.4439 38.7543 15.3374C38.424 15.2308 38.0618 15.1776 37.6676 15.1776C37.0213 15.1776 36.4336 15.3445 35.9045 15.6783C35.3754 16.0121 34.9545 16.5039 34.642 17.1538C34.3295 17.8036 34.1733 18.6009 34.1733 19.5455C34.1733 20.4901 34.3313 21.2873 34.6474 21.9371C34.9634 22.587 35.3913 23.0788 35.9311 23.4126C36.4709 23.7464 37.0781 23.9134 37.7528 23.9134C38.3778 23.9134 38.9283 23.7802 39.4041 23.5138C39.8835 23.244 40.2564 22.864 40.5227 22.3739C40.7926 21.8803 40.9276 21.2997 40.9276 20.6321L41.3324 20.7173H38.0511V19.5455H42.206V20.7173C42.206 21.6158 42.0142 22.397 41.6307 23.0611C41.2507 23.7251 40.7251 24.2401 40.054 24.6058C39.3864 24.968 38.6193 25.1491 37.7528 25.1491C36.7869 25.1491 35.9382 24.9219 35.2067 24.4673C34.4787 24.0128 33.9105 23.3665 33.5021 22.5284C33.0973 21.6903 32.8949 20.696 32.8949 19.5455C32.8949 18.6825 33.0103 17.9066 33.2411 17.2177C33.4755 16.5252 33.8058 15.9357 34.2319 15.4492C34.658 14.9627 35.1623 14.5898 35.7447 14.3306C36.3271 14.0714 36.968 13.9418 37.6676 13.9418C38.2429 13.9418 38.7791 14.0288 39.2763 14.2028C39.777 14.3732 40.2227 14.6165 40.6133 14.9325C41.0075 15.245 41.3359 15.6197 41.5987 16.0565C41.8615 16.4897 42.0426 16.9709 42.142 17.5H40.7784ZM44.4685 25V14.0909H45.7895V23.8281H50.8605V25H44.4685ZM61.6857 19.5455C61.6857 20.696 61.478 21.6903 61.0625 22.5284C60.647 23.3665 60.0771 24.0128 59.3526 24.4673C58.6282 24.9219 57.8008 25.1491 56.8704 25.1491C55.94 25.1491 55.1126 24.9219 54.3881 24.4673C53.6637 24.0128 53.0938 23.3665 52.6783 22.5284C52.2628 21.6903 52.055 20.696 52.055 19.5455C52.055 18.3949 52.2628 17.4006 52.6783 16.5625C53.0938 15.7244 53.6637 15.0781 54.3881 14.6236C55.1126 14.169 55.94 13.9418 56.8704 13.9418C57.8008 13.9418 58.6282 14.169 59.3526 14.6236C60.0771 15.0781 60.647 15.7244 61.0625 16.5625C61.478 17.4006 61.6857 18.3949 61.6857 19.5455ZM60.4073 19.5455C60.4073 18.6009 60.2493 17.8036 59.9332 17.1538C59.6207 16.5039 59.1964 16.0121 58.6602 15.6783C58.1275 15.3445 57.5309 15.1776 56.8704 15.1776C56.2099 15.1776 55.6115 15.3445 55.0753 15.6783C54.5426 16.0121 54.1183 16.5039 53.8022 17.1538C53.4897 17.8036 53.3335 18.6009 53.3335 19.5455C53.3335 20.4901 53.4897 21.2873 53.8022 21.9371C54.1183 22.587 54.5426 23.0788 55.0753 23.4126C55.6115 23.7464 56.2099 23.9134 56.8704 23.9134C57.5309 23.9134 58.1275 23.7464 58.6602 23.4126C59.1964 23.0788 59.6207 22.587 59.9332 21.9371C60.2493 21.2873 60.4073 20.4901 60.4073 19.5455ZM63.907 25V14.0909H67.7209C68.4808 14.0909 69.1076 14.2223 69.6012 14.4851C70.0948 14.7443 70.4624 15.0941 70.7038 15.5344C70.9453 15.9712 71.0661 16.456 71.0661 16.9886C71.0661 17.4574 70.9826 17.8445 70.8157 18.1499C70.6523 18.4553 70.4357 18.6967 70.1658 18.8743C69.8995 19.0518 69.6101 19.1832 69.2976 19.2685V19.375C69.6314 19.3963 69.967 19.5135 70.3043 19.7266C70.6417 19.9396 70.924 20.245 71.1513 20.6428C71.3786 21.0405 71.4922 21.527 71.4922 22.1023C71.4922 22.6491 71.3679 23.141 71.1193 23.5778C70.8707 24.0146 70.4783 24.3608 69.9421 24.6165C69.4059 24.8722 68.7081 25 67.8487 25H63.907ZM65.228 23.8281H67.8487C68.7116 23.8281 69.3242 23.6612 69.6864 23.3274C70.0522 22.9901 70.2351 22.5817 70.2351 22.1023C70.2351 21.733 70.141 21.392 69.9528 21.0795C69.7646 20.7635 69.4964 20.5114 69.1484 20.3232C68.8004 20.1314 68.3885 20.0355 67.9126 20.0355H65.228V23.8281ZM65.228 18.8849H67.6783C68.076 18.8849 68.4347 18.8068 68.7543 18.6506C69.0774 18.4943 69.3331 18.2741 69.5213 17.9901C69.7131 17.706 69.8089 17.3722 69.8089 16.9886C69.8089 16.5092 69.642 16.1026 69.3082 15.7688C68.9744 15.4315 68.4453 15.2628 67.7209 15.2628H65.228V18.8849ZM74.1103 25H72.7253L76.731 14.0909H78.0946L82.1003 25H80.7154L77.4554 15.8168H77.3702L74.1103 25ZM74.6216 20.7386H80.204V21.9105H74.6216V20.7386ZM83.7995 25V14.0909H85.1206V23.8281H90.1916V25H83.7995ZM105.234 17.5H103.913C103.835 17.12 103.698 16.7862 103.503 16.4986C103.311 16.2109 103.077 15.9695 102.8 15.7741C102.526 15.5753 102.223 15.4261 101.889 15.3267C101.555 15.2273 101.207 15.1776 100.845 15.1776C100.184 15.1776 99.5861 15.3445 99.0499 15.6783C98.5172 16.0121 98.0929 16.5039 97.7768 17.1538C97.4643 17.8036 97.3081 18.6009 97.3081 19.5455C97.3081 20.4901 97.4643 21.2873 97.7768 21.9371C98.0929 22.587 98.5172 23.0788 99.0499 23.4126C99.5861 23.7464 100.184 23.9134 100.845 23.9134C101.207 23.9134 101.555 23.8636 101.889 23.7642C102.223 23.6648 102.526 23.5174 102.8 23.3221C103.077 23.1232 103.311 22.88 103.503 22.5923C103.698 22.3011 103.835 21.9673 103.913 21.5909H105.234C105.135 22.1484 104.954 22.6474 104.691 23.0877C104.428 23.5281 104.101 23.9027 103.711 24.2116C103.32 24.517 102.882 24.7496 102.395 24.9094C101.912 25.0692 101.395 25.1491 100.845 25.1491C99.9146 25.1491 99.0872 24.9219 98.3627 24.4673C97.6383 24.0128 97.0684 23.3665 96.6529 22.5284C96.2374 21.6903 96.0297 20.696 96.0297 19.5455C96.0297 18.3949 96.2374 17.4006 96.6529 16.5625C97.0684 15.7244 97.6383 15.0781 98.3627 14.6236C99.0872 14.169 99.9146 13.9418 100.845 13.9418C101.395 13.9418 101.912 14.0217 102.395 14.1815C102.882 14.3413 103.32 14.5756 103.711 14.8846C104.101 15.19 104.428 15.5629 104.691 16.0032C104.954 16.44 105.135 16.9389 105.234 17.5ZM107.369 25V14.0909H111.055C111.907 14.0909 112.607 14.2365 113.154 14.5277C113.701 14.8153 114.105 15.2113 114.368 15.7156C114.631 16.2198 114.762 16.7933 114.762 17.4361C114.762 18.0788 114.631 18.6488 114.368 19.146C114.105 19.6431 113.702 20.0337 113.159 20.3178C112.616 20.5984 111.921 20.7386 111.076 20.7386H108.093V19.5455H111.034C111.616 19.5455 112.085 19.4602 112.44 19.2898C112.799 19.1193 113.058 18.8778 113.218 18.5653C113.381 18.2493 113.463 17.8729 113.463 17.4361C113.463 16.9993 113.381 16.6175 113.218 16.2908C113.054 15.9641 112.793 15.712 112.435 15.5344C112.076 15.3533 111.602 15.2628 111.012 15.2628H108.69V25H107.369ZM112.504 20.0994L115.188 25H113.654L111.012 20.0994H112.504ZM115.66 14.0909H117.173L120.198 19.1832H120.326L123.352 14.0909H124.864L120.923 20.5043V25H119.602V20.5043L115.66 14.0909ZM126.573 25V14.0909H130.259C131.115 14.0909 131.814 14.2454 132.358 14.5543C132.905 14.8597 133.309 15.2734 133.572 15.7955C133.835 16.3175 133.966 16.8999 133.966 17.5426C133.966 18.1854 133.835 18.7695 133.572 19.2951C133.313 19.8207 132.912 20.2397 132.368 20.5522C131.825 20.8612 131.129 21.0156 130.28 21.0156H127.638V19.8438H130.238C130.824 19.8438 131.294 19.7425 131.649 19.5401C132.004 19.3377 132.262 19.0643 132.422 18.7198C132.585 18.3718 132.667 17.9794 132.667 17.5426C132.667 17.1058 132.585 16.7152 132.422 16.3707C132.262 16.0263 132.003 15.7564 131.644 15.5611C131.285 15.3622 130.809 15.2628 130.216 15.2628H127.894V25H126.573ZM135.498 15.2628V14.0909H143.68V15.2628H140.249V25H138.928V15.2628H135.498ZM154.469 19.5455C154.469 20.696 154.261 21.6903 153.846 22.5284C153.43 23.3665 152.86 24.0128 152.136 24.4673C151.411 24.9219 150.584 25.1491 149.654 25.1491C148.723 25.1491 147.896 24.9219 147.171 24.4673C146.447 24.0128 145.877 23.3665 145.461 22.5284C145.046 21.6903 144.838 20.696 144.838 19.5455C144.838 18.3949 145.046 17.4006 145.461 16.5625C145.877 15.7244 146.447 15.0781 147.171 14.6236C147.896 14.169 148.723 13.9418 149.654 13.9418C150.584 13.9418 151.411 14.169 152.136 14.6236C152.86 15.0781 153.43 15.7244 153.846 16.5625C154.261 17.4006 154.469 18.3949 154.469 19.5455ZM153.191 19.5455C153.191 18.6009 153.032 17.8036 152.716 17.1538C152.404 16.5039 151.98 16.0121 151.443 15.6783C150.911 15.3445 150.314 15.1776 149.654 15.1776C148.993 15.1776 148.395 15.3445 147.858 15.6783C147.326 16.0121 146.901 16.5039 146.585 17.1538C146.273 17.8036 146.117 18.6009 146.117 19.5455C146.117 20.4901 146.273 21.2873 146.585 21.9371C146.901 22.587 147.326 23.0788 147.858 23.4126C148.395 23.7464 148.993 23.9134 149.654 23.9134C150.314 23.9134 150.911 23.7464 151.443 23.4126C151.98 23.0788 152.404 22.587 152.716 21.9371C153.032 21.2873 153.191 20.4901 153.191 19.5455Z" fill="white"/>
    <path d="M9.87225 14.8817V17.9368C10.5575 17.8182 11.2619 17.7525 11.9815 17.7525C12.5567 17.7525 13.1216 17.7949 13.6759 17.8715V14.8817H16.5562L14.226 10.8452L11.8948 6.80957L9.56556 10.8452L7.23438 14.8817H9.87225Z" fill="url(#paint0_linear_66_43)"/>
    <path d="M2.63882 22.0849C3.68177 20.8448 4.9757 19.818 6.44108 19.0746V8.07267H9.32182L6.99113 4.03658L4.66043 0L2.33117 4.03658L0 8.07267H2.63882V22.0849Z" fill="url(#paint1_linear_66_43)"/>
    <path d="M11.9825 19.0076C5.9814 19.0076 1.11523 23.808 1.11523 29.73C1.11523 35.6524 5.98186 40.4526 11.9825 40.4526C17.9854 40.4526 22.8501 35.6524 22.8501 29.73C22.8501 23.808 17.9854 19.0076 11.9825 19.0076ZM11.9825 38.1698C7.25866 38.1698 3.42925 34.3909 3.42925 29.73C3.42925 25.0691 7.25866 21.2897 11.9825 21.2897C16.7082 21.2897 20.5375 25.0686 20.5375 29.73C20.5375 34.3914 16.7082 38.1698 11.9825 38.1698Z" fill="url(#paint2_linear_66_43)"/>
    <path d="M14.7306 29.8017C14.4791 29.5536 14.1543 29.3431 13.7557 29.1702C13.5471 29.0807 13.1209 28.9564 12.4766 28.7978V25.1579C12.8937 25.2417 13.2214 25.416 13.46 25.6799C13.7005 25.9437 13.8567 26.3252 13.9329 26.82L15.2563 26.6229C15.1425 25.8233 14.8063 25.1951 14.2467 24.736C13.81 24.376 13.22 24.1622 12.4761 24.0912V23.4883H11.7227V24.0912C10.874 24.175 10.2345 24.406 9.80295 24.7784C9.15813 25.3346 8.83668 26.0619 8.83668 26.96C8.83668 27.4653 8.94573 27.9168 9.16672 28.314C9.38719 28.7106 9.70058 29.0226 10.1092 29.2469C10.6583 29.5507 11.1965 29.7517 11.7232 29.8503V33.8687C11.2202 33.8183 10.7892 33.5678 10.4283 33.1191C10.1778 32.8006 10.0025 32.3029 9.90249 31.6243L8.61523 31.8629C8.66334 32.5172 8.83286 33.071 9.12339 33.5254C9.41578 33.9788 9.76152 34.3078 10.1625 34.5117C10.5626 34.7141 11.0826 34.856 11.7227 34.9355V36.1985H12.4761V34.9212C13.3719 34.8793 14.1019 34.566 14.6663 33.9807C15.2297 33.3968 15.5121 32.6686 15.5121 31.7938C15.5121 31.3957 15.444 31.0275 15.3087 30.6851C15.1749 30.3437 14.9816 30.0489 14.7306 29.8017ZM11.7236 28.6364C11.1402 28.4644 10.7264 28.232 10.4835 27.942C10.2392 27.6525 10.1173 27.2924 10.1173 26.8624C10.1173 26.4281 10.2597 26.0504 10.5469 25.7337C10.8335 25.4146 11.226 25.2184 11.7236 25.1432V28.6364ZM13.71 33.2311C13.3857 33.5973 12.9752 33.8087 12.477 33.8692V30.026C13.1633 30.246 13.6214 30.4941 13.8519 30.7728C14.0824 31.0509 14.1972 31.4195 14.1972 31.8781C14.1967 32.4153 14.0348 32.8663 13.71 33.2311Z" fill="url(#paint3_linear_66_43)"/>
    <defs>
    <linearGradient id="paint0_linear_66_43" x1="7.23438" y1="17.9368" x2="18.1894" y2="8.75917" gradientUnits="userSpaceOnUse">
    <stop stop-color="#FFF7AE"/>
    <stop offset="0.17" stop-color="#FFFACF"/>
    <stop offset="0.37" stop-color="#9B6326"/>
    <stop offset="0.38" stop-color="#FFF7AE"/>
    <stop offset="0.53" stop-color="#D3C175"/>
    <stop offset="0.69" stop-color="#FCEEC4"/>
    <stop offset="0.7" stop-color="#B78626"/>
    <stop offset="0.82" stop-color="#FFFACF"/>
    <stop offset="1" stop-color="#9B6326"/>
    </linearGradient>
    <linearGradient id="paint1_linear_66_43" x1="4.71604e-07" y1="22.0849" x2="15.8244" y2="15.4056" gradientUnits="userSpaceOnUse">
    <stop stop-color="#FFF7AE"/>
    <stop offset="0.17" stop-color="#FFFACF"/>
    <stop offset="0.37" stop-color="#9B6326"/>
    <stop offset="0.38" stop-color="#FFF7AE"/>
    <stop offset="0.53" stop-color="#D3C175"/>
    <stop offset="0.69" stop-color="#FCEEC4"/>
    <stop offset="0.7" stop-color="#B78626"/>
    <stop offset="0.82" stop-color="#FFFACF"/>
    <stop offset="1" stop-color="#9B6326"/>
    </linearGradient>
    <linearGradient id="paint2_linear_66_43" x1="1.11523" y1="40.4526" x2="22.5582" y2="18.7195" gradientUnits="userSpaceOnUse">
    <stop stop-color="#FFF7AE"/>
    <stop offset="0.17" stop-color="#FFFACF"/>
    <stop offset="0.37" stop-color="#9B6326"/>
    <stop offset="0.38" stop-color="#FFF7AE"/>
    <stop offset="0.53" stop-color="#D3C175"/>
    <stop offset="0.69" stop-color="#FCEEC4"/>
    <stop offset="0.7" stop-color="#B78626"/>
    <stop offset="0.82" stop-color="#FFFACF"/>
    <stop offset="1" stop-color="#9B6326"/>
    </linearGradient>
    <linearGradient id="paint3_linear_66_43" x1="8.61523" y1="36.1985" x2="19.2714" y2="30.4163" gradientUnits="userSpaceOnUse">
    <stop stop-color="#FFF7AE"/>
    <stop offset="0.17" stop-color="#FFFACF"/>
    <stop offset="0.37" stop-color="#9B6326"/>
    <stop offset="0.38" stop-color="#FFF7AE"/>
    <stop offset="0.53" stop-color="#D3C175"/>
    <stop offset="0.69" stop-color="#FCEEC4"/>
    <stop offset="0.7" stop-color="#B78626"/>
    <stop offset="0.82" stop-color="#FFFACF"/>
    <stop offset="1" stop-color="#9B6326"/>
    </linearGradient>
    </defs>
    </svg>
    