<svg width="396" height="110" viewBox="0 0 396 110" fill="none" xmlns="http://www.w3.org/2000/svg">
<g clip-path="url(#clip0_561_159)">
<path d="M25.8579 38.9763V46.9776C27.6527 46.667 29.4975 46.4949 31.3821 46.4949C32.8888 46.4949 34.3681 46.6059 35.8199 46.8067V38.9763H43.3635L37.2606 28.4043L31.1551 17.8349L25.0547 28.4043L18.9492 38.9763H25.8579Z" fill="url(#paint0_linear_561_159)"/>
<path d="M6.91119 57.8414C9.64273 54.5935 13.0316 51.9044 16.8695 49.9574V21.1427H24.4143L18.3101 10.572L12.2059 0L6.10544 10.572L0 21.1427H6.91119V57.8414Z" fill="url(#paint1_linear_561_159)"/>
<path d="M31.3797 49.7815C15.6627 49.7815 2.91797 62.3541 2.91797 77.864C2.91797 93.3752 15.6639 105.947 31.3797 105.947C47.1017 105.947 59.8426 93.3752 59.8426 77.864C59.8426 62.3541 47.1017 49.7815 31.3797 49.7815ZM31.3797 99.9684C19.0079 99.9684 8.97851 90.0712 8.97851 77.864C8.97851 65.6569 19.0079 55.7585 31.3797 55.7585C43.7565 55.7585 53.7858 65.6556 53.7858 77.864C53.7858 90.0724 43.7565 99.9684 31.3797 99.9684Z" fill="url(#paint2_linear_561_159)"/>
<path d="M38.5788 78.0524C37.9203 77.4025 37.0696 76.8512 36.0257 76.3985C35.4793 76.164 34.363 75.8384 32.6755 75.4231V65.8901C33.7681 66.1096 34.6262 66.5661 35.2511 67.2571C35.881 67.9481 36.2901 68.9472 36.4896 70.2431L39.9558 69.7268C39.6577 67.6326 38.7772 65.9874 37.3116 64.785C36.1678 63.8421 34.6225 63.2821 32.6742 63.0962V61.5172H30.701V63.0962C28.4784 63.3157 26.8033 63.9207 25.6732 64.896C23.9844 66.3529 23.1425 68.2575 23.1425 70.6098C23.1425 71.9332 23.4281 73.1156 24.0069 74.1559C24.5843 75.1948 25.4051 76.0118 26.4752 76.5993C27.9133 77.395 29.3228 77.9214 30.7023 78.1796V88.7041C29.3851 88.5719 28.2563 87.9159 27.3109 86.7409C26.6548 85.9065 26.1958 84.6031 25.9339 82.8257L22.5625 83.4506C22.6885 85.1644 23.1325 86.6149 23.8934 87.8049C24.6592 88.9923 25.5647 89.8541 26.6149 90.388C27.6626 90.9181 29.0247 91.2898 30.701 91.4981V94.8058H32.6742V91.4606C35.0203 91.3509 36.9324 90.5302 38.4105 88.9973C39.886 87.4681 40.6256 85.561 40.6256 83.2697C40.6256 82.227 40.4473 81.2629 40.093 80.3661C39.7426 79.4718 39.2362 78.6997 38.5788 78.0524ZM30.7035 75.0003C29.1756 74.55 28.0917 73.9413 27.4556 73.1817C26.8157 72.4234 26.4964 71.4804 26.4964 70.3541C26.4964 69.2166 26.8694 68.2275 27.6215 67.3981C28.3723 66.5624 29.4001 66.0485 30.7035 65.8515V75.0003ZM35.9059 87.034C35.0565 87.9932 33.9814 88.547 32.6767 88.7054V78.6398C34.474 79.2161 35.6739 79.8659 36.2776 80.5956C36.8813 81.324 37.1819 82.2894 37.1819 83.4905C37.1806 84.8974 36.7566 86.0786 35.9059 87.034Z" fill="url(#paint3_linear_561_159)"/>
<path d="M96.529 40.0544C99.6975 40.0544 102.197 40.8389 104.027 42.4077C105.858 43.9766 106.773 46.2377 106.773 49.1908C106.773 52.0517 105.865 54.2897 104.05 55.9047C102.235 57.5197 99.7284 58.3273 96.529 58.3273H89.2384V72.724H84.8086V40.0544H96.529ZM95.237 54.4512C97.5442 54.4512 99.2591 54.0282 100.382 53.1822C101.505 52.3363 102.066 51.0058 102.066 49.1908C102.066 45.6839 99.7899 43.9304 95.237 43.9304H89.2384V54.4512L95.237 54.4512ZM116.601 40.0544V68.5711H131.598V72.724H112.172V40.0544H116.601ZM150.378 40.0544L164.36 72.724H159.192L155.916 64.6489H140.365L137.135 72.724H131.967L146.364 40.0544H150.378ZM141.934 60.7729H154.301L148.21 45.7762H148.117L141.934 60.7729ZM164.498 40.0544L173.404 54.4051L182.587 40.0544H187.985L175.619 58.7887V72.724H171.189V58.7887L158.823 40.0544H164.498ZM225.085 40.0544V44.2073H208.981V54.4512H223.977V58.6041H208.981V72.724H204.551V40.0544H225.085ZM246.034 39.2238C250.894 39.2238 254.947 40.8388 258.193 44.0689C261.438 47.299 263.061 51.4057 263.061 56.3892C263.061 59.5577 262.338 62.4571 260.892 65.0873C259.446 67.7175 257.408 69.7861 254.778 71.2936C252.148 72.8011 249.233 73.5546 246.034 73.5546C242.865 73.5546 239.974 72.8086 237.359 71.3166C234.744 69.8247 232.698 67.7636 231.222 65.1334C229.745 62.5032 229.007 59.5884 229.007 56.3892C229.007 51.5289 230.599 47.4526 233.783 44.1612C236.967 40.8698 241.05 39.2238 246.034 39.2238ZM233.714 56.3892C233.714 60.0807 234.867 63.1723 237.174 65.6641C239.482 68.1558 242.435 69.4017 246.034 69.4017C249.572 69.4017 252.509 68.1712 254.847 65.7102C257.185 63.2492 258.354 60.1421 258.354 56.3892C258.354 52.6671 257.201 49.5678 254.893 47.0913C252.586 44.6148 249.618 43.3768 245.988 43.3768C242.481 43.3768 239.559 44.6073 237.221 47.0682C234.882 49.5292 233.714 52.6364 233.714 56.3892ZM281.149 40.0544C284.348 40.0544 286.856 40.8542 288.671 42.4539C290.485 44.0535 291.393 46.2993 291.393 49.1908C291.393 51.375 290.647 53.2822 289.155 54.9126C287.663 56.5431 285.748 57.5121 283.41 57.8197H283.364L292.639 72.724H287.102L278.796 58.3273H273.858V72.724H269.429V40.0544H281.149ZM279.857 54.4512C282.164 54.4512 283.879 54.0282 285.002 53.1822C286.125 52.3363 286.686 51.0058 286.686 49.1908C286.686 45.6839 284.41 43.9304 279.857 43.9304H273.858V54.4512L279.857 54.4512ZM328.4 46.0531L320.51 72.724H315.849L306.297 40.0544H310.912L318.11 66.1716H318.202L325.908 40.0544H330.984L338.69 66.1716H338.782L345.981 40.0544H350.595L341.09 72.724H336.429L328.492 46.0531H328.4ZM359.27 40.0544V72.724H354.84V40.0544H359.27ZM373.482 40.0544L391.478 66.9099H391.57V40.0544H396V72.724H390.371L372.19 45.8685H372.098V72.724H367.668V40.0544H373.482Z" fill="white"/>
</g>
<defs>
<linearGradient id="paint0_linear_561_159" x1="18.9492" y1="46.9776" x2="47.6411" y2="22.941" gradientUnits="userSpaceOnUse">
<stop stop-color="#FFF7AE"/>
<stop offset="0.17" stop-color="#FFFACF"/>
<stop offset="0.37" stop-color="#9B6326"/>
<stop offset="0.38" stop-color="#FFF7AE"/>
<stop offset="0.53" stop-color="#D3C175"/>
<stop offset="0.69" stop-color="#FCEEC4"/>
<stop offset="0.7" stop-color="#B78626"/>
<stop offset="0.82" stop-color="#FFFACF"/>
<stop offset="1" stop-color="#9B6326"/>
</linearGradient>
<linearGradient id="paint1_linear_561_159" x1="0" y1="57.8414" x2="41.4448" y2="40.348" gradientUnits="userSpaceOnUse">
<stop stop-color="#FFF7AE"/>
<stop offset="0.17" stop-color="#FFFACF"/>
<stop offset="0.37" stop-color="#9B6326"/>
<stop offset="0.38" stop-color="#FFF7AE"/>
<stop offset="0.53" stop-color="#D3C175"/>
<stop offset="0.69" stop-color="#FCEEC4"/>
<stop offset="0.7" stop-color="#B78626"/>
<stop offset="0.82" stop-color="#FFFACF"/>
<stop offset="1" stop-color="#9B6326"/>
</linearGradient>
<linearGradient id="paint2_linear_561_159" x1="2.91797" y1="105.947" x2="59.078" y2="49.027" gradientUnits="userSpaceOnUse">
<stop stop-color="#FFF7AE"/>
<stop offset="0.17" stop-color="#FFFACF"/>
<stop offset="0.37" stop-color="#9B6326"/>
<stop offset="0.38" stop-color="#FFF7AE"/>
<stop offset="0.53" stop-color="#D3C175"/>
<stop offset="0.69" stop-color="#FCEEC4"/>
<stop offset="0.7" stop-color="#B78626"/>
<stop offset="0.82" stop-color="#FFFACF"/>
<stop offset="1" stop-color="#9B6326"/>
</linearGradient>
<linearGradient id="paint3_linear_561_159" x1="22.5625" y1="94.8058" x2="50.4714" y2="79.6619" gradientUnits="userSpaceOnUse">
<stop stop-color="#FFF7AE"/>
<stop offset="0.17" stop-color="#FFFACF"/>
<stop offset="0.37" stop-color="#9B6326"/>
<stop offset="0.38" stop-color="#FFF7AE"/>
<stop offset="0.53" stop-color="#D3C175"/>
<stop offset="0.69" stop-color="#FCEEC4"/>
<stop offset="0.7" stop-color="#B78626"/>
<stop offset="0.82" stop-color="#FFFACF"/>
<stop offset="1" stop-color="#9B6326"/>
</linearGradient>
<clipPath id="clip0_561_159">
<rect width="396" height="109.127" fill="white"/>
</clipPath>
</defs>
</svg>
