<svg
  width="203"
  height="46"
  viewBox="0 0 203 46"
  fill="none"
  xmlns="http://www.w3.org/2000/svg"
>
  <path
    d="M0.0723366 44.7609C-0.0707297 44.9971 0.00476363 45.3045 0.240956 45.4476C0.477148 45.5907 0.784597 45.5152 0.927663 45.279L0.0723366 44.7609ZM123 20.5287L122.983 21.0284L123 20.5287ZM202.354 4.38807C202.549 4.19281 202.549 3.87622 202.354 3.68096L199.172 0.498981C198.976 0.303719 198.66 0.303719 198.464 0.498981C198.269 0.694244 198.269 1.01083 198.464 1.20609L201.293 4.03452L198.464 6.86294C198.269 7.0582 198.269 7.37479 198.464 7.57005C198.66 7.76531 198.976 7.76531 199.172 7.57005L202.354 4.38807ZM2.58322 42.6196C2.73209 42.387 2.66425 42.0778 2.43167 41.9289C2.1991 41.78 1.88987 41.8479 1.741 42.0804L2.58322 42.6196ZM5.23158 36.9406C5.06991 37.1644 5.12032 37.477 5.34419 37.6387C5.56805 37.8003 5.8806 37.7499 6.04227 37.5261L5.23158 36.9406ZM9.79721 32.6694C9.97362 32.457 9.9444 32.1417 9.73195 31.9653C9.5195 31.7889 9.20427 31.8181 9.02786 32.0306L9.79721 32.6694ZM13.1942 27.3992C13.0011 27.5965 13.0044 27.9131 13.2018 28.1063C13.3991 28.2994 13.7157 28.2961 13.9088 28.0987L13.1942 27.3992ZM18.4172 23.9117C18.6288 23.7342 18.6564 23.4188 18.4789 23.2073C18.3015 22.9957 17.9861 22.9681 17.7745 23.1456L18.4172 23.9117ZM22.7599 19.4151C22.5295 19.5674 22.4663 19.8776 22.6186 20.1079C22.7709 20.3382 23.0811 20.4015 23.3114 20.2492L22.7599 19.4151ZM28.6295 17.1938C28.8772 17.0719 28.9793 16.7722 28.8575 16.5244C28.7356 16.2766 28.4359 16.1746 28.1881 16.2964L28.6295 17.1938ZM33.9659 13.9136C33.7042 14.0018 33.5637 14.2855 33.6519 14.5472C33.7402 14.8088 34.0238 14.9494 34.2855 14.8611L33.9659 13.9136ZM40.1997 13.2784C40.4703 13.2237 40.6454 12.9599 40.5906 12.6892C40.5359 12.4186 40.2721 12.2435 40.0014 12.2983L40.1997 13.2784ZM46.1819 11.4094C45.9068 11.4341 45.7038 11.677 45.7284 11.952C45.753 12.2271 45.9959 12.4301 46.271 12.4055L46.1819 11.4094ZM52.4075 12.1444C52.6836 12.1446 52.9076 11.9209 52.9078 11.6447C52.908 11.3686 52.6842 11.1446 52.4081 11.1444L52.4075 12.1444ZM58.6331 11.373C58.3576 11.3538 58.1188 11.5616 58.0996 11.8371C58.0805 12.1126 58.2883 12.3514 58.5637 12.3706L58.6331 11.373ZM64.7013 12.9593C64.9754 12.992 65.2243 12.7963 65.257 12.5221C65.2898 12.2479 65.094 11.9991 64.8198 11.9664L64.7013 12.9593ZM70.9699 12.8116C70.697 12.7698 70.4418 12.9573 70.4001 13.2302C70.3583 13.5032 70.5458 13.7583 70.8188 13.8001L70.9699 12.8116ZM76.9238 14.7997C77.1959 14.8466 77.4545 14.664 77.5014 14.3919C77.5483 14.1198 77.3658 13.8611 77.0936 13.8142L76.9238 14.7997ZM83.1935 14.8939C82.9217 14.845 82.6617 15.0258 82.6129 15.2976C82.564 15.5693 82.7447 15.8293 83.0165 15.8781L83.1935 14.8939ZM89.1141 16.9704C89.386 17.0185 89.6454 16.837 89.6935 16.5651C89.7416 16.2932 89.5602 16.0337 89.2883 15.9856L89.1141 16.9704ZM95.3907 17.0335C95.1182 16.9885 94.8609 17.1729 94.8159 17.4454C94.7709 17.7178 94.9552 17.9752 95.2277 18.0202L95.3907 17.0335ZM101.35 18.9763C101.623 19.0162 101.877 18.827 101.917 18.5537C101.957 18.2805 101.768 18.0267 101.495 17.9868L101.35 18.9763ZM107.624 18.8059C107.349 18.7729 107.1 18.9684 107.067 19.2426C107.035 19.5167 107.23 19.7657 107.504 19.7987L107.624 18.8059ZM113.681 20.4483C113.956 20.4728 114.199 20.2697 114.224 19.9947C114.248 19.7196 114.045 19.4768 113.77 19.4522L113.681 20.4483ZM119.923 19.8932C119.647 19.8785 119.412 20.0901 119.397 20.3658C119.382 20.6416 119.594 20.8771 119.869 20.8918L119.923 19.8932ZM125.958 21.1143C126.234 21.1208 126.463 20.9023 126.47 20.6262C126.476 20.3502 126.258 20.1211 125.981 20.1146L125.958 21.1143ZM131.814 20.1862C131.538 20.1861 131.314 20.4099 131.313 20.686C131.313 20.9621 131.537 21.1861 131.813 21.1862L131.814 20.1862ZM137.657 21.1111C137.933 21.1037 138.151 20.8739 138.144 20.5978C138.136 20.3218 137.906 20.104 137.63 20.1114L137.657 21.1111ZM143.462 19.8626C143.187 19.879 142.976 20.1158 142.993 20.3915C143.009 20.6671 143.246 20.8773 143.522 20.8609L143.462 19.8626ZM149.382 20.3999C149.657 20.3727 149.858 20.1278 149.831 19.853C149.803 19.5782 149.558 19.3775 149.284 19.4048L149.382 20.3999ZM155.059 18.6961C154.786 18.7365 154.597 18.9908 154.638 19.2639C154.678 19.5371 154.933 19.7258 155.206 19.6853L155.059 18.6961ZM160.982 18.6604C161.252 18.6038 161.425 18.3389 161.369 18.0686C161.312 17.7983 161.047 17.625 160.777 17.6816L160.982 18.6604ZM166.426 16.2902C166.16 16.3662 166.007 16.6431 166.083 16.9086C166.159 17.174 166.436 17.3276 166.701 17.2515L166.426 16.2902ZM172.292 15.3946C172.55 15.2964 172.68 15.0075 172.582 14.7495C172.483 14.4914 172.195 14.3618 171.936 14.4601L172.292 15.3946ZM177.266 12.1631C177.017 12.2827 176.913 12.5814 177.032 12.8303C177.152 13.0792 177.451 13.1841 177.699 13.0645L177.266 12.1631ZM182.912 10.3738C183.155 10.2429 183.246 9.9396 183.115 9.6965C182.984 9.4534 182.681 9.36251 182.438 9.49349L182.912 10.3738ZM187.651 6.78852C187.401 6.90667 187.295 7.20478 187.413 7.45437C187.531 7.70396 187.829 7.81052 188.079 7.69237L187.651 6.78852ZM193.454 5.63787C193.72 5.5633 193.875 5.28731 193.8 5.02143C193.726 4.75554 193.45 4.60045 193.184 4.67502L193.454 5.63787ZM199.023 3.64909C198.747 3.67101 198.542 3.91193 198.564 4.1872C198.586 4.46247 198.827 4.66785 199.102 4.64594L199.023 3.64909ZM0.927663 45.279C1.47861 44.3694 2.03045 43.4831 2.58322 42.6196L1.741 42.0804C1.18365 42.9511 0.62745 43.8444 0.0723366 44.7609L0.927663 45.279ZM6.04227 37.5261C7.2885 35.8004 8.53993 34.1835 9.79721 32.6694L9.02786 32.0306C7.75542 33.563 6.49024 35.1978 5.23158 36.9406L6.04227 37.5261ZM13.9088 28.0987C15.4023 26.573 16.9047 25.1806 18.4172 23.9117L17.7745 23.1456C16.2358 24.4364 14.7095 25.8513 13.1942 27.3992L13.9088 28.0987ZM23.3114 20.2492C25.0682 19.0875 26.8403 18.0737 28.6295 17.1938L28.1881 16.2964C26.3605 17.1953 24.5516 18.2302 22.7599 19.4151L23.3114 20.2492ZM34.2855 14.8611C36.2333 14.2041 38.2039 13.6821 40.1997 13.2784L40.0014 12.2983C37.9667 12.7098 35.9554 13.2425 33.9659 13.9136L34.2855 14.8611ZM46.271 12.4055C48.2888 12.2249 50.3336 12.1432 52.4075 12.1444L52.4081 11.1444C50.3075 11.1432 48.2327 11.226 46.1819 11.4094L46.271 12.4055ZM58.5637 12.3706C60.5815 12.5108 62.6266 12.7115 64.7013 12.9593L64.8198 11.9664C62.7317 11.717 60.6699 11.5145 58.6331 11.373L58.5637 12.3706ZM70.8188 13.8001C72.8263 14.1071 74.8606 14.4441 76.9238 14.7997L77.0936 13.8142C75.0265 13.4579 72.9855 13.1198 70.9699 12.8116L70.8188 13.8001ZM83.0165 15.8781C85.0218 16.2386 87.0546 16.606 89.1141 16.9704L89.2883 15.9856C87.2306 15.6216 85.2 15.2546 83.1935 14.8939L83.0165 15.8781ZM95.2277 18.0202C97.2421 18.3529 99.2826 18.6744 101.35 18.9763L101.495 17.9868C99.4344 17.686 97.4001 17.3655 95.3907 17.0335L95.2277 18.0202ZM107.504 19.7987C109.537 20.0433 111.596 20.2623 113.681 20.4483L113.77 19.4522C111.696 19.2673 109.647 19.0494 107.624 18.8059L107.504 19.7987ZM119.869 20.8918C120.901 20.947 121.939 20.9928 122.983 21.0284L123.017 20.0289C121.979 19.9936 120.948 19.9481 119.923 19.8932L119.869 20.8918ZM122.983 21.0284C123.992 21.0628 124.984 21.0914 125.958 21.1143L125.981 20.1146C125.011 20.0917 124.023 20.0632 123.017 20.0289L122.983 21.0284ZM131.813 21.1862C133.843 21.187 135.79 21.1612 137.657 21.1111L137.63 20.1114C135.772 20.1613 133.835 20.1869 131.814 20.1862L131.813 21.1862ZM143.522 20.8609C145.58 20.7384 147.531 20.5835 149.382 20.3999L149.284 19.4048C147.446 19.587 145.508 19.7409 143.462 19.8626L143.522 20.8609ZM155.206 19.6853C157.267 19.3801 159.187 19.036 160.982 18.6604L160.777 17.6816C159.002 18.053 157.102 18.3936 155.059 18.6961L155.206 19.6853ZM166.701 17.2515C168.74 16.6674 170.59 16.0425 172.292 15.3946L171.936 14.4601C170.26 15.0981 168.437 15.714 166.426 16.2902L166.701 17.2515ZM177.699 13.0645C179.592 12.1554 181.299 11.243 182.912 10.3738L182.438 9.49349C180.825 10.3622 179.136 11.2649 177.266 12.1631L177.699 13.0645ZM188.079 7.69237C189.803 6.87615 191.547 6.17256 193.454 5.63787L193.184 4.67502C191.209 5.22887 189.411 5.95548 187.651 6.78852L188.079 7.69237ZM199.102 4.64594C200.019 4.57296 200.982 4.53452 202 4.53452V3.53452C200.956 3.53452 199.967 3.57391 199.023 3.64909L199.102 4.64594Z"
    fill="#cda954"
  />
</svg>