<svg
  width="116"
  height="79"
  viewBox="0 0 116 79"
  fill="none"
  xmlns="http://www.w3.org/2000/svg"
>
  <rect
    x="27.7148"
    y="59.9246"
    width="2.00952"
    height="27.2143"
    rx="1.00476"
    transform="rotate(90 27.7148 59.9246)"
    fill="black"
    stroke="#4A5568"
  />
  <rect
    x="11.7852"
    y="52.0247"
    width="2.00952"
    height="25.3333"
    rx="1.00476"
    fill="black"
    stroke="#4A5568"
  />
  <rect
    x="0.5"
    y="52.0246"
    width="27.2143"
    height="25.3333"
    rx="1.5"
    stroke="#4A5568"
  />
  <path
    d="M10.0663 51.0245C10.2539 51.3581 10.4429 51.6996 10.633 52.0441C9.78874 51.4911 8.94178 50.8712 8.24711 50.232C7.56962 49.6087 7.09244 49.0167 6.87382 48.4983C6.67216 48.0201 6.70474 47.6611 6.96205 47.3273C7.04997 47.2132 7.10936 47.1798 7.12875 47.1712C7.14008 47.1662 7.15112 47.162 7.18406 47.1685C7.29005 47.1894 7.5122 47.3049 7.85074 47.6631C8.50917 48.3597 9.25836 49.588 10.0663 51.0245ZM7.30264 51.2595C8.71592 52.5598 10.6447 53.7428 12.0144 54.5037C12.1679 54.765 12.321 55.0193 12.4731 55.263C12.869 55.8975 13.27 56.4798 13.6681 56.9403C14.0513 57.3837 14.4985 57.7942 15.0031 57.9717C15.3675 58.0999 15.7652 57.9075 15.8927 57.5446C16.0201 57.1819 15.8303 56.7831 15.4661 56.655C15.3172 56.6026 15.0677 56.4255 14.7233 56.0272C14.394 55.6462 14.037 55.1335 13.6565 54.5237C13.4823 54.2446 13.3057 53.9492 13.1269 53.6417C13.124 53.6367 13.1212 53.6318 13.1182 53.6269C12.7499 52.9931 12.3753 52.3139 11.9955 51.6252L11.995 51.6242C11.7586 51.1955 11.5203 50.7634 11.2821 50.3398C10.4881 48.928 9.66022 47.5458 8.86446 46.7039C8.4757 46.2926 8.00151 45.9071 7.45425 45.7992C7.16065 45.7413 6.85573 45.7657 6.56328 45.8955C6.27892 46.0217 6.04696 46.2293 5.85741 46.4752C5.22601 47.2944 5.23803 48.2101 5.58846 49.0411C5.92236 49.8329 6.57179 50.5871 7.30264 51.2595ZM15.3349 57.0284C15.3349 57.0284 15.3349 57.0283 15.3348 57.0283L15.3349 57.0284Z"
    fill="black"
    stroke="#4A5568"
    stroke-linecap="round"
  />
  <path
    d="M16.6689 50.8852C16.22 51.1516 15.7628 51.4279 15.3027 51.7062C16.5104 51.6525 17.7823 51.5277 18.8982 51.2795C19.9088 51.0546 20.7169 50.744 21.2356 50.351C21.7189 49.9848 21.9125 49.5871 21.853 49.0761C21.833 48.904 21.792 48.8253 21.7709 48.795C21.7553 48.7727 21.7377 48.7562 21.6941 48.7408C21.5657 48.6953 21.2734 48.6851 20.7393 48.8441C19.6991 49.1539 18.2683 49.9363 16.6689 50.8852ZM19.2047 52.6959C17.1018 53.1638 14.5675 53.2195 12.8162 53.1812C12.5144 53.3529 12.2174 53.5175 11.9275 53.6721C11.1844 54.0683 10.4683 54.4094 9.82595 54.6324C9.20647 54.8476 8.55217 54.9911 7.97872 54.8786C7.57705 54.7998 7.3359 54.4093 7.41238 54.0262C7.48862 53.6443 7.85935 53.3761 8.25967 53.4546C8.44572 53.4911 8.79766 53.4565 9.35987 53.2612C9.89892 53.0741 10.5392 52.7729 11.2559 52.3908C11.5841 52.2157 11.924 52.0261 12.2728 51.826C12.2781 51.8228 12.2834 51.8198 12.2888 51.8167C13.0071 51.4042 13.7574 50.9505 14.5174 50.491L14.5184 50.4904C14.9915 50.2043 15.4681 49.9161 15.9398 49.6363C17.5134 48.7026 19.0954 47.8222 20.3346 47.4532C20.9404 47.2728 21.6043 47.1693 22.1771 47.3721C22.4839 47.4807 22.7533 47.6738 22.952 47.9585C23.1451 48.2352 23.2455 48.5608 23.2852 48.9022C23.4171 50.0356 22.8988 50.9038 22.1003 51.5087C21.3364 52.0876 20.2901 52.4545 19.2047 52.6959ZM8.1713 53.8973C8.17178 53.8974 8.17226 53.8975 8.17274 53.8976L8.1713 53.8973Z"
    fill="black"
    stroke="#4A5568"
    stroke-linecap="round"
  />
  <rect
    x="0.5"
    y="0.5"
    width="3.48"
    height="41"
    rx="1.5"
    transform="matrix(4.37114e-08 1 1 -4.37114e-08 74 50.6982)"
    fill="black"
    stroke="#2D3748"
  />
  <rect
    x="-0.5"
    y="0.5"
    width="3.48"
    height="38.2"
    rx="1.5"
    transform="matrix(-1 0 0 1 98.2002 38.9384)"
    fill="black"
    stroke="#2D3748"
  />
  <rect
    x="-0.5"
    y="0.5"
    width="41"
    height="38.2"
    rx="1.5"
    transform="matrix(-1 0 0 1 115 38.9383)"
    stroke="#2D3748"
  />
  <path
    d="M98.3873 40.8272C100.165 40.6018 102.092 40.2538 103.736 39.724C105.052 39.2997 106.105 38.7837 106.762 38.1841C107.383 37.618 107.61 37.0272 107.446 36.3113C107.392 36.0739 107.318 35.9514 107.264 35.8895C107.216 35.8352 107.158 35.7979 107.065 35.7752C106.832 35.7189 106.399 35.7611 105.707 36.039C104.35 36.5834 102.548 37.7956 100.564 39.2311C99.9926 39.645 99.4107 40.0735 98.8259 40.5043L98.8251 40.5049C98.6793 40.6123 98.5333 40.7198 98.3873 40.8272ZM95.0989 41.2458C95.9948 40.6165 96.9273 39.9297 97.87 39.2353L97.8708 39.2347C98.4578 38.8023 99.0486 38.3672 99.6339 37.9436C101.591 36.527 103.548 35.1931 105.116 34.564C105.886 34.2551 106.707 34.0539 107.438 34.2306C107.826 34.3243 108.177 34.5226 108.456 34.8399C108.728 35.1496 108.898 35.5344 108.995 35.9567C109.314 37.3529 108.775 38.4982 107.832 39.3582C106.926 40.1855 105.617 40.787 104.222 41.2366C101.503 42.113 98.1435 42.5076 95.8207 42.6795C95.433 42.9499 95.0511 43.2099 94.6782 43.4547C93.7518 44.0628 92.8588 44.5923 92.0504 44.9591C91.2656 45.3152 90.4537 45.5689 89.7266 45.5005C89.2891 45.4594 88.9695 45.071 89.0106 44.635C89.0518 44.199 89.4382 43.8772 89.8756 43.9184C90.1755 43.9466 90.6717 43.84 91.3949 43.5118C92.0943 43.1945 92.9085 42.7161 93.8073 42.126C94.2197 41.8553 94.6452 41.5642 95.0806 41.2586C95.0866 41.2543 95.0927 41.25 95.0989 41.2458Z"
    fill="black"
    stroke="#2D3748"
    stroke-linecap="round"
  />
  <path
    d="M93.441 37.0004C93.6052 37.243 93.7697 37.4861 93.9342 37.7286C92.0749 36.8127 90.0703 35.6888 88.462 34.4639C87.2256 33.5222 86.2941 32.573 85.8134 31.6727C85.3568 30.8174 85.327 30.065 85.7803 29.322C85.9295 29.0775 86.0604 28.9631 86.1517 28.9097C86.2334 28.8618 86.3189 28.8411 86.4351 28.8518C86.7171 28.8777 87.168 29.0902 87.8004 29.6465C89.0399 30.7367 90.5028 32.712 92.0706 34.9874C92.5229 35.6439 92.9805 36.32 93.4401 36.9991L93.441 37.0004ZM97.0119 39.258C96.2958 38.2496 95.5623 37.1658 94.8213 36.0709L94.8208 36.0701C94.3593 35.3881 93.895 34.7021 93.4323 34.0306C91.8841 31.7836 90.3105 29.6331 88.8917 28.3852C88.1947 27.7721 87.4111 27.2625 86.5904 27.1871C86.1554 27.1471 85.7224 27.2308 85.3231 27.4645C84.9335 27.6925 84.6213 28.0365 84.3697 28.4489C83.5397 29.8093 83.6827 31.2117 84.3539 32.4687C85.0014 33.6815 86.1545 34.8041 87.4609 35.799C90.0104 37.7408 93.4167 39.3982 95.8061 40.4338C96.1194 40.8721 96.4302 41.2966 96.7368 41.7009C97.4914 42.6957 98.2381 43.5915 98.9541 44.2806C99.6501 44.9504 100.406 45.5139 101.186 45.7033C101.642 45.8139 102.083 45.5236 102.188 45.0845C102.293 44.6465 102.033 44.1883 101.578 44.078C101.239 43.9955 100.746 43.6908 100.1 43.0695C99.4746 42.4676 98.7878 41.65 98.0541 40.6827C97.7173 40.2385 97.3741 39.7678 97.026 39.2778C97.0214 39.2712 97.0167 39.2645 97.0119 39.258Z"
    fill="black"
    stroke="#2D3748"
    stroke-linecap="round"
  />
  <rect
    x="19.5"
    y="16.7902"
    width="65.1174"
    height="60.7095"
    rx="4.5"
    fill="black"
    stroke="#718096"
  />
  <rect
    x="84.6172"
    y="35.3029"
    width="6.05252"
    height="65.1174"
    transform="rotate(90 84.6172 35.3029)"
    fill="black"
    stroke="#CDA954"
  />
  <rect
    x="45.9473"
    y="16.7905"
    width="6.05252"
    height="60.7095"
    fill="black"
    stroke="#CDA954"
  />
  <path
    d="M28.1547 4.09035C28.3766 3.55037 28.6231 3.23404 28.8487 3.04993C29.0633 2.87478 29.3087 2.77769 29.6199 2.75524C30.3077 2.70561 31.3243 3.023 32.7023 3.86175C35.421 5.51666 38.817 8.73476 42.4596 12.4238C43.514 13.4916 44.584 14.5936 45.6574 15.699L45.6586 15.7002C46.4203 16.4846 47.1837 17.2708 47.9433 18.0466C43.7548 16.8827 38.9121 15.2671 34.9923 13.2412C32.3589 11.8801 30.2502 10.3876 29.0105 8.80934C27.8141 7.28611 27.469 5.75909 28.1547 4.09035ZM52.4071 19.346C50.7451 17.7099 49.0273 15.9409 47.2963 14.1582L47.2955 14.1574C46.2171 13.0468 45.1338 11.9311 44.0582 10.8418C40.4478 7.18535 36.864 3.76142 33.8701 1.93901C32.3915 1.03896 30.8686 0.409018 29.4583 0.510778C28.7204 0.564016 28.0269 0.817267 27.4283 1.30581C26.8407 1.78536 26.3999 2.44587 26.076 3.2342C25.0144 5.81726 25.6659 8.19172 27.2435 10.2003C28.7786 12.1546 31.224 13.826 33.9611 15.2407C39.342 18.0219 46.2722 20.0208 51.0684 21.1834C51.8205 21.9204 52.5622 22.6307 53.288 23.3017C55.0063 24.8902 56.6663 26.2878 58.1952 27.3143C59.6938 28.3203 61.2032 29.0652 62.5978 29.165C63.218 29.2094 63.7549 28.7418 63.799 28.1229C63.8432 27.504 63.3781 26.9649 62.7581 26.9205C61.9692 26.864 60.8661 26.3979 59.4472 25.4453C58.0589 24.5133 56.497 23.2053 54.813 21.6485C54.0379 20.932 53.2435 20.1689 52.4347 19.3732C52.4257 19.364 52.4165 19.3549 52.4071 19.346Z"
    fill="black"
    stroke="#CDA954"
    stroke-linecap="round"
  />
  <path
    d="M68.9319 4.70493C68.751 4.25552 68.5532 3.99987 68.3794 3.85505C68.2161 3.71889 68.0309 3.64367 67.7917 3.62605C67.2527 3.58634 66.4316 3.84124 65.2932 4.54891C63.051 5.9427 60.2441 8.65786 57.2246 11.7808C56.3513 12.684 55.4649 13.6162 54.5755 14.5516L54.5741 14.553C54.0089 15.1475 53.4424 15.7432 52.8781 16.3328C56.2779 15.3555 60.153 14.0189 63.3039 12.3558C65.4813 11.2065 67.2162 9.95054 68.233 8.62858C69.2114 7.3565 69.4892 6.08989 68.9319 4.70493ZM48.8544 17.5361C50.2306 16.1526 51.653 14.6566 53.0873 13.1483L53.0886 13.1469C53.9818 12.2074 54.8795 11.2634 55.7707 10.3416C58.7609 7.24903 61.7373 4.34403 64.2284 2.79547C65.4569 2.03183 66.7398 1.48517 67.9394 1.57355C68.5694 1.61997 69.1622 1.84118 69.6726 2.26662C70.1726 2.68338 70.5442 3.2543 70.8156 3.92881C71.7061 6.14165 71.1581 8.17629 69.8381 9.89254C68.5558 11.5597 66.5172 12.9809 64.2447 14.1803C59.7854 16.5341 54.0489 18.2255 50.0737 19.2106C49.4559 19.8286 48.8465 20.4245 48.2498 20.9878C46.8249 22.333 45.4459 23.519 44.1737 24.3912C42.9294 25.2442 41.6621 25.8865 40.4809 25.9728C39.9094 26.0146 39.432 25.5757 39.3931 25.019C39.3544 24.4635 39.7642 23.9619 40.3343 23.9202C40.9622 23.8743 41.8595 23.4919 43.0327 22.6875C44.1776 21.9026 45.4682 20.7992 46.8623 19.4831C47.5035 18.8776 48.161 18.2328 48.8306 17.56C48.8383 17.552 48.8463 17.544 48.8544 17.5361Z"
    fill="black"
    stroke="#CDA954"
    stroke-linecap="round"
  />
</svg>