<svg width="18" height="18" viewBox="0 0 18 18" fill="none" xmlns="http://www.w3.org/2000/svg">
<path d="M4.34063 13.5356C4.34063 13.4161 4.34063 13.3477 4.34063 13.2792C4.34063 9.77766 4.34063 6.27563 4.34156 2.77407C4.34156 2.65172 4.33875 2.5261 4.36453 2.4075C4.43766 2.06719 4.75266 1.84875 5.12438 1.86563C5.50547 1.88297 5.77734 2.11688 5.82516 2.47547C5.83969 2.58516 5.84391 2.69672 5.84391 2.80735C5.84484 6.88219 5.84484 10.9566 5.84391 15.0314C5.84391 15.1941 5.85234 15.3609 5.81906 15.518C5.75156 15.8353 5.53172 16.02 5.22234 16.0861C4.93734 16.147 4.69406 16.0523 4.49859 15.8367C4.41234 15.7416 4.33219 15.6408 4.24172 15.5503C3.36234 14.6686 2.48062 13.7892 1.60172 12.9075C1.25156 12.5559 1.25906 12.0881 1.61484 11.7844C1.91859 11.5247 2.32969 11.5392 2.62688 11.8322C3.14297 12.3413 3.65344 12.8559 4.16625 13.3683C4.21125 13.4133 4.25813 13.4559 4.34156 13.5356H4.34063Z" fill="white"/>
<path d="M12.2006 2.24625C13.4339 2.24625 14.6667 2.24625 15.9 2.24625C16.3903 2.24625 16.6931 2.52609 16.6973 2.98078C16.7011 3.41672 16.3594 3.74812 15.893 3.74859C13.4269 3.75 10.9603 3.75047 8.49422 3.74859C7.93594 3.74812 7.60734 3.33187 7.72734 2.79C7.80094 2.45906 8.0775 2.24718 8.44828 2.24672C9.69891 2.24531 10.9495 2.24625 12.2002 2.24625H12.2006Z" fill="white"/>
<path d="M11.4745 5.98548C12.4448 5.98548 13.4147 5.9836 14.385 5.98641C14.8167 5.98782 15.0637 6.15469 15.1645 6.49923C15.3052 6.98016 14.9972 7.43626 14.4994 7.48219C14.4295 7.48876 14.3592 7.48829 14.2894 7.48829C12.3961 7.48829 10.5023 7.48923 8.60906 7.48735C8.48109 7.48735 8.3489 7.48641 8.22609 7.45641C7.87265 7.36923 7.68375 7.05891 7.71562 6.64548C7.74328 6.28923 7.98422 6.03657 8.33672 5.9986C8.42344 5.98923 8.51156 5.98641 8.59922 5.98641C9.55781 5.98548 10.5159 5.98594 11.4745 5.98594V5.98548Z" fill="white"/>
<path d="M10.6805 11.2275C9.93797 11.2275 9.19547 11.2275 8.45297 11.2275C8.16047 11.2275 7.92094 11.1192 7.79391 10.8488C7.65844 10.5614 7.66828 10.2684 7.85859 10.0017C7.99875 9.80579 8.20875 9.72751 8.43937 9.72704C9.94781 9.72282 11.4562 9.72095 12.9647 9.72704C13.4166 9.72892 13.7128 10.0505 13.7006 10.4902C13.6889 10.9078 13.3659 11.2252 12.9436 11.2266C12.1894 11.2289 11.4352 11.227 10.6809 11.227L10.6805 11.2275Z" fill="white"/>
<path d="M9.96375 13.4742C10.4545 13.4742 10.9448 13.4733 11.4356 13.4742C11.8917 13.4756 12.187 13.748 12.2053 14.182C12.2231 14.5978 11.9081 14.9653 11.4811 14.9709C10.4592 14.9845 9.43688 14.9845 8.41453 14.9709C7.965 14.9648 7.69406 14.6386 7.71141 14.183C7.72781 13.748 8.01234 13.4756 8.45625 13.4742C8.95875 13.4723 9.46078 13.4742 9.96328 13.4742H9.96375Z" fill="white"/>
</svg>
