<svg
  width="80"
  height="41"
  viewBox="0 0 80 41"
  fill="none"
  xmlns="http://www.w3.org/2000/svg"
>
  <ellipse
    cx="40"
    cy="11.0388"
    rx="10"
    ry="9.99644"
    stroke="#CDA954"
    stroke-width="2"
  />
  <path
    fill-rule="evenodd"
    clip-rule="evenodd"
    d="M26 40.0285C26 32.2998 32.2677 26.0338 40 26.0338C47.7323 26.0338 54 32.2998 54 40.0285H56C56 31.1945 48.8362 24.0338 40 24.0338C31.1638 24.0338 24 31.1945 24 40.0285H26Z"
    fill="#CDA954"
  />
  <ellipse
    cx="10.9987"
    cy="7.70665"
    rx="6.66667"
    ry="6.66429"
    stroke="#718096"
    stroke-width="2"
  />
  <path
    fill-rule="evenodd"
    clip-rule="evenodd"
    d="M2 27.0331C2 22.0649 6.0291 18.0367 11 18.0367C15.9709 18.0367 20 22.0649 20 27.0331H22C22 20.9596 17.0748 16.0367 11 16.0367C4.9252 16.0367 0 20.9596 0 27.0331H2Z"
    fill="#718096"
  />
  <ellipse
    cx="68.9987"
    cy="7.70665"
    rx="6.66667"
    ry="6.66429"
    stroke="#718096"
    stroke-width="2"
  />
  <path
    fill-rule="evenodd"
    clip-rule="evenodd"
    d="M60 27.0331C60 22.0649 64.0291 18.0367 69 18.0367C73.9709 18.0367 78 22.0649 78 27.0331H80C80 20.9596 75.0748 16.0367 69 16.0367C62.9252 16.0367 58 20.9596 58 27.0331H60Z"
    fill="#718096"
  />
</svg>