<svg
  width="140"
  height="42"
  viewBox="0 0 140 42"
  fill="none"
  xmlns="http://www.w3.org/2000/svg"
>
  <rect
    x="1"
    y="1.04163"
    width="138"
    height="32.9875"
    rx="3"
    stroke="#718096"
    stroke-width="2"
  />
  <path
    d="M10 24.8826C10.8695 24.7377 12.0208 23.8676 12.7221 23.3555C13.907 22.4903 14.9392 21.2615 15.8691 20.1422C17.9685 17.615 19.4517 14.608 20.1049 11.3784C20.3279 10.2757 20.6788 8.6108 19.3215 8.15837C17.42 7.52455 15.7127 8.87126 15.5238 10.8074C15.2206 13.9154 16.1371 16.9893 17.1106 19.9098C17.7235 21.7486 19.1452 23.7242 20.3439 25.2145C21.2863 26.3861 22.5012 26.3166 23.9158 26.3166C24.5452 26.3166 24.5438 26.2811 24.9582 25.8253C25.7895 24.9108 26.6489 23.9513 27.2753 22.8775C28.471 20.8276 28.8166 18.1902 31.6571 18.1902C33.1023 18.1902 34.3245 18.732 35.4481 19.6309C36.4482 20.431 36.5533 21.2772 36.5303 22.4925C36.5096 23.5936 35.4386 24.3496 34.5917 24.8826C32.864 25.9698 30.8422 26.9142 28.7624 26.9142C28.0906 26.9142 27.4028 26.1386 27.096 25.5863C26.3509 24.2452 26.3723 22.8344 26.3723 21.3505C26.3723 20.3711 26.4163 19.8586 27.0628 19.0799C27.3837 18.6933 27.9394 18.0544 28.4703 17.9579C31.4625 17.4138 34.7499 17.994 37.6988 18.5488C40.9622 19.1627 44.18 20.0348 47.4585 20.5737C49.1235 20.8474 50.5073 20.6589 51.8005 19.4119C52.5698 18.6701 53.2916 17.6894 53.374 16.5769C53.4222 15.9268 53.6931 14.4832 52.969 14.2465C50.3251 13.3822 48.0071 14.1702 45.8651 15.8532C45.4126 16.2087 45.5919 17.7808 45.6194 18.3031C45.6721 19.3035 46.3169 20.1078 47.0734 20.6999C49.0979 22.2842 51.6498 22.3729 54.0977 22.3729C56.2271 22.3729 58.0807 22.0591 60.1129 21.4833C61.3815 21.1238 62.5874 20.7033 63.6316 19.8633C64.0305 19.5425 64.5389 18.6983 65.0392 18.5554C66.4285 18.1584 67.9259 18.3097 69.3679 18.3097C70.9632 18.3097 72.3852 19.2215 73.876 19.7305C76.0507 20.4731 78.6948 19.9838 80.4554 18.5753C80.9328 18.1934 81.2557 17.5454 81.6372 17.0549C81.9964 16.5931 82.3858 16.5211 82.8057 16.1852C83.2873 15.8 85.1812 16.4216 85.4083 16.8757"
    stroke="#718096"
    stroke-linecap="round"
  />
  <path
    d="M86.1671 24.6761L86.9923 24.8494L92.4546 27.6227C93.3715 27.9294 93.9741 28.8494 93.8955 29.8361V30.1827L92.7166 38.3427C92.638 38.9161 92.3891 39.4494 91.9306 39.8227C91.5246 40.2227 90.9875 40.4227 90.4242 40.4227H81.4122C80.7703 40.4227 80.1809 40.1827 79.7486 39.7161L71.9023 31.7561L73.0812 30.4227C73.3956 30.0894 73.8934 29.9027 74.3649 29.9294H74.7448L79.9451 31.0894V17.0894C79.9451 16.3822 80.2211 15.7039 80.7124 15.2038C81.2037 14.7037 81.8701 14.4227 82.5649 14.4227C83.2597 14.4227 83.926 14.7037 84.4174 15.2038C84.9087 15.7039 85.1847 16.3822 85.1847 17.0894V24.6761H86.1671V24.6761Z"
    fill="black"
    stroke="#CDA954"
    stroke-width="2"
    stroke-linejoin="round"
  />
</svg>