<svg width="29" height="29" viewBox="0 0 29 29" fill="none" xmlns="http://www.w3.org/2000/svg">
<path d="M20.953 26.489C20.626 26.489 20.297 26.41 19.994 26.251L14.528 23.376L9.00701 26.25C8.66734 26.4306 8.28359 26.5117 7.8999 26.4839C7.5162 26.4561 7.14814 26.3206 6.83801 26.093C6.52585 25.8684 6.2834 25.5602 6.13852 25.2039C5.99365 24.8477 5.95222 24.4578 6.01901 24.079L7.06301 17.993L2.62401 13.63C2.34726 13.3626 2.15156 13.0226 2.0594 12.649C1.96724 12.2754 1.98235 11.8834 2.10301 11.518C2.22077 11.152 2.4392 10.8266 2.73331 10.579C3.02742 10.3314 3.38532 10.1716 3.76601 10.118L9.87601 9.23L12.654 3.66C13.004 2.952 13.711 2.513 14.501 2.513C15.291 2.513 15.998 2.952 16.348 3.66L19.081 9.197L25.236 10.118C25.6167 10.1716 25.9746 10.3314 26.2687 10.579C26.5628 10.8266 26.7813 11.152 26.899 11.518C27.0192 11.8834 27.0341 12.2753 26.9419 12.6488C26.8498 13.0224 26.6544 13.3624 26.378 13.63L21.956 17.94L22.983 24.08C23.0492 24.4587 23.0075 24.8484 22.8627 25.2046C22.7178 25.5607 22.4757 25.8689 22.164 26.094C21.8119 26.3497 21.3882 26.4879 20.953 26.489ZM4.01901 12.198L8.44001 16.508C8.92501 16.982 9.14701 17.662 9.03301 18.33L7.99001 24.417L8.54201 25.365L8.07601 24.48L13.541 21.606C13.8366 21.4507 14.1655 21.3695 14.4994 21.3693C14.8333 21.3691 15.1623 21.45 15.458 21.605L20.924 24.48L21.01 24.417L19.966 18.331C19.9099 18.0019 19.9345 17.6641 20.0376 17.3466C20.1407 17.0291 20.3193 16.7413 20.558 16.508L24.98 12.198L24.947 12.095L18.837 11.207C18.5066 11.1586 18.1929 11.0308 17.9227 10.8345C17.6526 10.6382 17.4341 10.3793 17.286 10.08L14.553 4.543C14.545 4.527 14.536 4.511 14.499 4.511L11.712 10.08C11.5644 10.3793 11.3463 10.6382 11.0765 10.8345C10.8067 11.0308 10.4932 11.1587 10.163 11.207L4.05101 12.095L3.32001 12.913L4.01901 12.198Z" fill="white" fill-opacity="0.501961"/>
</svg>
