<svg
  width="141"
  height="60"
  viewBox="0 0 141 60"
  fill="none"
  xmlns="http://www.w3.org/2000/svg"
>
  <path
    fill-rule="evenodd"
    clip-rule="evenodd"
    d="M70.2169 27.8846C70.1308 27.8226 70.0442 27.76 69.957 27.6969C68.247 26.4586 66.3249 25.0053 64.2471 23.4344C53.0081 14.9372 37.2148 2.99667 25.7993 2.99667C11.5507 2.99667 0 14.5893 0 28.8895C0 43.1897 11.5507 54.7823 25.7993 54.7823C39.4656 54.7823 57.5629 40.9065 70.0695 30.2346C70.2029 30.1208 70.3356 30.0074 70.4677 29.8943C70.5538 29.9563 70.6404 30.0189 70.7275 30.082C72.4376 31.3203 74.3597 32.7736 76.4375 34.3445C87.6765 42.8417 103.47 54.7822 114.885 54.7822C129.134 54.7823 140.685 43.1897 140.685 28.8894C140.685 14.5892 129.134 2.99664 114.885 2.99664C101.219 2.99664 83.1217 16.8724 70.615 27.5443C70.4817 27.6581 70.3489 27.7715 70.2169 27.8846ZM77.663 32.7637C75.7377 31.308 73.9265 29.9386 72.2896 28.745C78.1733 23.7397 85.2089 18.1128 92.3875 13.5806C100.444 8.49395 108.362 4.99664 114.885 4.99664C128.022 4.99664 138.685 15.687 138.685 28.8894C138.685 42.0919 128.022 52.7823 114.885 52.7822C111.725 52.7822 108.034 51.7414 104.01 49.9368C100.007 48.1418 95.8111 45.6543 91.6759 42.9043C87.5454 40.1574 83.5189 37.1779 79.8475 34.4131C79.1058 33.8546 78.3767 33.3033 77.6633 32.7639L77.663 32.7637ZM63.0212 25.015C64.9467 26.4707 66.758 27.8402 68.3949 29.0339C62.5113 34.0392 55.4757 39.6661 48.297 44.1983C40.2402 49.285 32.323 52.7823 25.7993 52.7823C12.6621 52.7823 2 42.0919 2 28.8895C2 15.687 12.6621 4.99667 25.7993 4.99667C28.9591 4.99667 32.6502 6.0375 36.6748 7.84216C40.6776 9.6371 44.8735 12.1246 49.0087 14.8746C53.1392 17.6215 57.1657 20.601 60.8371 23.3658C61.5787 23.9243 62.3078 24.4756 63.0212 25.015Z"
    fill="#718096"
  />
  <mask
    id="mask0_736_627"
    maskUnits="userSpaceOnUse"
    x="0"
    y="2"
    width="141"
    height="53"
  >
    <path
      fill-rule="evenodd"
      clip-rule="evenodd"
      d="M70.2169 27.8846C70.1308 27.8226 70.0442 27.76 69.957 27.6969C68.247 26.4586 66.3249 25.0053 64.2471 23.4344C53.0081 14.9372 37.2148 2.99667 25.7993 2.99667C11.5507 2.99667 0 14.5893 0 28.8895C0 43.1897 11.5507 54.7823 25.7993 54.7823C39.4656 54.7823 57.5629 40.9065 70.0695 30.2346C70.2029 30.1208 70.3356 30.0074 70.4677 29.8943C70.5538 29.9563 70.6404 30.0189 70.7275 30.082C72.4376 31.3203 74.3597 32.7736 76.4375 34.3445C87.6765 42.8417 103.47 54.7822 114.885 54.7822C129.134 54.7823 140.685 43.1897 140.685 28.8894C140.685 14.5892 129.134 2.99664 114.885 2.99664C101.219 2.99664 83.1217 16.8724 70.615 27.5443C70.4817 27.6581 70.3489 27.7715 70.2169 27.8846ZM77.663 32.7637C75.7377 31.308 73.9265 29.9386 72.2896 28.745C78.1733 23.7397 85.2089 18.1128 92.3875 13.5806C100.444 8.49395 108.362 4.99664 114.885 4.99664C128.022 4.99664 138.685 15.687 138.685 28.8894C138.685 42.0919 128.022 52.7823 114.885 52.7822C111.725 52.7822 108.034 51.7414 104.01 49.9368C100.007 48.1418 95.8111 45.6543 91.6759 42.9043C87.5454 40.1574 83.5189 37.1779 79.8475 34.4131C79.1058 33.8546 78.3767 33.3033 77.6633 32.7639L77.663 32.7637ZM63.0212 25.015C64.9467 26.4707 66.758 27.8402 68.3949 29.0339C62.5113 34.0392 55.4757 39.6661 48.297 44.1983C40.2402 49.285 32.323 52.7823 25.7993 52.7823C12.6621 52.7823 2 42.0919 2 28.8895C2 15.687 12.6621 4.99667 25.7993 4.99667C28.9591 4.99667 32.6502 6.0375 36.6748 7.84216C40.6776 9.6371 44.8735 12.1246 49.0087 14.8746C53.1392 17.6215 57.1657 20.601 60.8371 23.3658C61.5787 23.9243 62.3078 24.4756 63.0212 25.015Z"
      fill="#718096"
    />
  </mask>
  <g mask="url(#mask0_736_627)">
    <path
      d="M35.8186 58.2346C27.5329 57.5441 27.7631 49.0283 28.9139 44.8566C28.9139 44.8566 59.9855 35.7942 69.048 28.8895C78.1105 21.9847 84.67 1.70198 98.8248 -0.0242113C112.979 -1.7504 113.929 9.90136 112.634 15.943C99.489 27.2345 85.0153 18.9639 70.7742 29.7526C60.7347 37.3583 44.1043 58.9251 35.8186 58.2346Z"
      fill="#CDA954"
    />
  </g>
  <rect
    x="24.2383"
    y="50.9671"
    width="4.66079"
    height="8.58854"
    transform="rotate(-16.8887 24.2383 50.9671)"
    fill="black"
  />
  <rect
    x="109.297"
    y="1.62164"
    width="5.87613"
    height="6.79431"
    transform="rotate(-16.0198 109.297 1.62164)"
    fill="black"
  />
  <path
    d="M100.844 2.34137L110.844 4.0128L104.344 11.3414"
    stroke="#CDA954"
    stroke-width="2"
    stroke-linecap="round"
    stroke-linejoin="round"
  />
</svg>