<svg width="396" height="110" viewBox="0 0 396 110" fill="none" xmlns="http://www.w3.org/2000/svg">
    <mask id="mask0_69_3" style="mask-type:luminance" maskUnits="userSpaceOnUse" x="0" y="0" width="396" height="110">
    <path d="M396 0H0V109.127H396V0Z" fill="white"/>
    </mask>
    <g mask="url(#mask0_69_3)">
    <path d="M25.8579 38.9764V46.9777C27.6527 46.6671 29.4975 46.495 31.3821 46.495C32.8888 46.495 34.3681 46.606 35.8199 46.8068V38.9764H43.3635L37.2606 28.4044L31.1551 17.835L25.0547 28.4044L18.9492 38.9764H25.8579Z" fill="url(#paint0_linear_69_3)"/>
    <path d="M6.91119 57.8414C9.64273 54.5935 13.0316 51.9044 16.8695 49.9574V21.1427H24.4143L18.3101 10.572L12.2059 0L6.10544 10.572L0 21.1427H6.91119V57.8414Z" fill="url(#paint1_linear_69_3)"/>
    <path d="M31.3797 49.7815C15.6627 49.7815 2.91797 62.3541 2.91797 77.864C2.91797 93.3752 15.6639 105.947 31.3797 105.947C47.1017 105.947 59.8426 93.3752 59.8426 77.864C59.8426 62.3541 47.1017 49.7815 31.3797 49.7815ZM31.3797 99.9684C19.0079 99.9684 8.97851 90.0712 8.97851 77.864C8.97851 65.6569 19.0079 55.7585 31.3797 55.7585C43.7565 55.7585 53.7858 65.6556 53.7858 77.864C53.7858 90.0724 43.7565 99.9684 31.3797 99.9684Z" fill="url(#paint2_linear_69_3)"/>
    <path d="M38.5788 78.0523C37.9203 77.4024 37.0696 76.8511 36.0257 76.3984C35.4793 76.1639 34.363 75.8383 32.6755 75.423V65.89C33.7681 66.1095 34.6262 66.566 35.2511 67.257C35.881 67.948 36.2901 68.9471 36.4896 70.243L39.9558 69.7267C39.6577 67.6325 38.7772 65.9873 37.3116 64.7849C36.1678 63.842 34.6225 63.282 32.6742 63.0961V61.5171H30.701V63.0961C28.4784 63.3156 26.8033 63.9206 25.6732 64.8959C23.9844 66.3528 23.1425 68.2574 23.1425 70.6097C23.1425 71.9331 23.4281 73.1155 24.0069 74.1558C24.5843 75.1947 25.4051 76.0117 26.4752 76.5992C27.9133 77.3949 29.3228 77.9213 30.7023 78.1795V88.704C29.3851 88.5718 28.2563 87.9158 27.3109 86.7408C26.6548 85.9064 26.1958 84.603 25.9339 82.8256L22.5625 83.4505C22.6885 85.1643 23.1325 86.6148 23.8934 87.8048C24.6592 88.9922 25.5647 89.854 26.6149 90.3879C27.6626 90.918 29.0247 91.2897 30.701 91.498V94.8057H32.6742V91.4605C35.0203 91.3508 36.9324 90.5301 38.4105 88.9972C39.886 87.468 40.6256 85.5609 40.6256 83.2696C40.6256 82.2269 40.4473 81.2628 40.093 80.366C39.7426 79.4717 39.2362 78.6996 38.5788 78.0523ZM30.7035 75.0002C29.1756 74.5499 28.0917 73.9412 27.4556 73.1816C26.8157 72.4233 26.4964 71.4803 26.4964 70.354C26.4964 69.2165 26.8694 68.2274 27.6215 67.398C28.3723 66.5623 29.4001 66.0484 30.7035 65.8514V75.0002ZM35.9059 87.0339C35.0565 87.9931 33.9814 88.5469 32.6767 88.7053V78.6397C34.474 79.216 35.6739 79.8658 36.2776 80.5955C36.8813 81.3239 37.1819 82.2893 37.1819 83.4904C37.1806 84.8973 36.7566 86.0785 35.9059 87.0339Z" fill="url(#paint3_linear_69_3)"/>
    <path d="M106.437 50.0895C106.19 49.3139 105.857 48.6193 105.44 48.0057C105.031 47.3835 104.541 46.8551 103.97 46.4205C103.399 45.9773 102.747 45.6406 102.014 45.4105C101.289 45.1804 100.492 45.0653 99.623 45.0653C98.1486 45.0653 96.8191 45.4446 95.6344 46.2031C94.4498 46.9616 93.5123 48.0739 92.8219 49.5398C92.1401 50.9972 91.7992 52.7827 91.7992 54.8963C91.7992 57.0185 92.1444 58.8125 92.8347 60.2784C93.525 61.7443 94.4711 62.8565 95.6728 63.6151C96.8745 64.3736 98.2424 64.7528 99.7765 64.7528C101.2 64.7528 102.44 64.4631 103.497 63.8835C104.562 63.304 105.384 62.4858 105.964 61.429C106.552 60.3636 106.846 59.1108 106.846 57.6705L107.869 57.8622H100.377V54.6023H110.669V57.581C110.669 59.7798 110.2 61.6889 109.262 63.3082C108.333 64.919 107.046 66.1634 105.401 67.0412C103.765 67.919 101.89 68.358 99.7765 68.358C97.4071 68.358 95.3276 67.8125 93.5378 66.7216C91.7566 65.6307 90.3674 64.0838 89.3702 62.081C88.373 60.0696 87.8745 57.6832 87.8745 54.9219C87.8745 52.8338 88.1642 50.9588 88.7438 49.2969C89.3233 47.6349 90.1373 46.2244 91.1855 45.0653C92.2424 43.8977 93.4824 43.0071 94.9057 42.3935C96.3375 41.7713 97.9015 41.4602 99.5975 41.4602C101.012 41.4602 102.329 41.669 103.548 42.0866C104.775 42.5043 105.866 43.0966 106.82 43.8636C107.784 44.6307 108.58 45.5426 109.211 46.5994C109.842 47.6477 110.268 48.8111 110.49 50.0895H106.437ZM115.683 68V41.8182H119.633V64.5994H131.497V68H115.683ZM157.727 54.9091C157.727 57.7045 157.215 60.108 156.193 62.1193C155.17 64.1222 153.768 65.6648 151.987 66.7472C150.214 67.821 148.198 68.358 145.94 68.358C143.673 68.358 141.649 67.821 139.867 66.7472C138.095 65.6648 136.697 64.1179 135.674 62.1065C134.651 60.0952 134.14 57.696 134.14 54.9091C134.14 52.1136 134.651 49.7145 135.674 47.7116C136.697 45.7003 138.095 44.1577 139.867 43.0838C141.649 42.0014 143.673 41.4602 145.94 41.4602C148.198 41.4602 150.214 42.0014 151.987 43.0838C153.768 44.1577 155.17 45.7003 156.193 47.7116C157.215 49.7145 157.727 52.1136 157.727 54.9091ZM153.815 54.9091C153.815 52.7784 153.47 50.9844 152.779 49.527C152.097 48.0611 151.16 46.9531 149.967 46.2031C148.782 45.4446 147.44 45.0653 145.94 45.0653C144.431 45.0653 143.085 45.4446 141.9 46.2031C140.715 46.9531 139.778 48.0611 139.088 49.527C138.406 50.9844 138.065 52.7784 138.065 54.9091C138.065 57.0398 138.406 58.8381 139.088 60.304C139.778 61.7614 140.715 62.8693 141.9 63.6278C143.085 64.3778 144.431 64.7528 145.94 64.7528C147.44 64.7528 148.782 64.3778 149.967 63.6278C151.16 62.8693 152.097 61.7614 152.779 60.304C153.47 58.8381 153.815 57.0398 153.815 54.9091ZM162.652 68V41.8182H172.24C174.098 41.8182 175.636 42.125 176.855 42.7386C178.074 43.3437 178.986 44.1662 179.591 45.206C180.196 46.2372 180.498 47.4006 180.498 48.696C180.498 49.7869 180.298 50.7074 179.898 51.4574C179.497 52.1989 178.96 52.7955 178.287 53.2472C177.622 53.6903 176.889 54.0142 176.088 54.2188V54.4744C176.957 54.517 177.805 54.7983 178.632 55.3182C179.467 55.8295 180.157 56.5582 180.703 57.5043C181.248 58.4503 181.521 59.6009 181.521 60.956C181.521 62.294 181.206 63.4957 180.575 64.5611C179.953 65.6179 178.99 66.4574 177.686 67.0795C176.382 67.6932 174.716 68 172.687 68H162.652ZM166.602 64.6122H172.304C174.196 64.6122 175.551 64.2457 176.369 63.5128C177.187 62.7798 177.596 61.8636 177.596 60.7642C177.596 59.9375 177.388 59.179 176.97 58.4886C176.552 57.7983 175.956 57.2486 175.18 56.8395C174.413 56.4304 173.501 56.2259 172.444 56.2259H166.602V64.6122ZM166.602 53.1449H171.895C172.781 53.1449 173.578 52.9744 174.285 52.6335C175.001 52.2926 175.568 51.8153 175.986 51.2017C176.412 50.5795 176.625 49.8466 176.625 49.0028C176.625 47.9205 176.246 47.0128 175.487 46.2798C174.729 45.5469 173.565 45.1804 171.997 45.1804H166.602V53.1449ZM188.418 68H184.225L193.647 41.8182H198.211L207.633 68H203.439L196.037 46.5739H195.833L188.418 68ZM189.121 57.7472H202.724V61.071H189.121V57.7472ZM211.414 68V41.8182H215.364V64.5994H227.227V68H211.414ZM263.007 50.3324H259.018C258.865 49.4801 258.579 48.7301 258.162 48.0824C257.744 47.4347 257.233 46.8849 256.628 46.4332C256.023 45.9815 255.345 45.6406 254.595 45.4105C253.854 45.1804 253.065 45.0653 252.23 45.0653C250.721 45.0653 249.371 45.4446 248.177 46.2031C246.993 46.9616 246.055 48.0739 245.365 49.5398C244.683 51.0057 244.342 52.7955 244.342 54.9091C244.342 57.0398 244.683 58.8381 245.365 60.304C246.055 61.7699 246.997 62.8778 248.19 63.6278C249.383 64.3778 250.726 64.7528 252.217 64.7528C253.044 64.7528 253.828 64.642 254.569 64.4205C255.319 64.1903 255.997 63.8537 256.602 63.4105C257.207 62.9673 257.719 62.4261 258.136 61.7869C258.562 61.1392 258.856 60.3977 259.018 59.5625L263.007 59.5753C262.794 60.8622 262.381 62.0469 261.767 63.1293C261.162 64.2031 260.382 65.1321 259.427 65.9162C258.481 66.6918 257.399 67.2926 256.18 67.7188C254.961 68.1449 253.632 68.358 252.192 68.358C249.925 68.358 247.905 67.821 246.132 66.7472C244.359 65.6648 242.961 64.1179 241.939 62.1065C240.925 60.0952 240.417 57.696 240.417 54.9091C240.417 52.1136 240.929 49.7145 241.952 47.7116C242.974 45.7003 244.372 44.1577 246.145 43.0838C247.917 42.0014 249.933 41.4602 252.192 41.4602C253.581 41.4602 254.876 41.6605 256.078 42.0611C257.288 42.4531 258.375 43.0327 259.338 43.7997C260.301 44.5582 261.098 45.4872 261.729 46.5866C262.359 47.6776 262.785 48.9261 263.007 50.3324ZM267.734 68V41.8182H277.066C279.095 41.8182 280.778 42.1676 282.116 42.8665C283.463 43.5653 284.468 44.5327 285.133 45.7685C285.798 46.9957 286.13 48.4148 286.13 50.0256C286.13 51.6278 285.794 53.0384 285.12 54.2571C284.455 55.4673 283.45 56.4091 282.103 57.0824C280.765 57.7557 279.082 58.0923 277.053 58.0923H269.984V54.6918H276.695C277.974 54.6918 279.014 54.5085 279.815 54.142C280.624 53.7756 281.217 53.2429 281.592 52.544C281.967 51.8452 282.154 51.0057 282.154 50.0256C282.154 49.0369 281.963 48.1804 281.579 47.456C281.204 46.7315 280.612 46.1776 279.802 45.794C279.001 45.402 277.948 45.206 276.644 45.206H271.684V68H267.734ZM280.659 56.1875L287.127 68H282.627L276.286 56.1875H280.659ZM287.968 41.8182H292.455L299.295 53.7202H299.576L306.415 41.8182H310.903L301.404 57.7216V68H297.466V57.7216L287.968 41.8182ZM314.632 68V41.8182H323.965C326.002 41.8182 327.689 42.1889 329.027 42.9304C330.365 43.6719 331.367 44.6861 332.031 45.973C332.696 47.2514 333.029 48.6918 333.029 50.294C333.029 51.9048 332.692 53.3537 332.019 54.6406C331.354 55.919 330.348 56.9332 329.002 57.6832C327.664 58.4247 325.98 58.7955 323.952 58.7955H317.534V55.446H323.594C324.881 55.446 325.925 55.2244 326.726 54.7812C327.527 54.3295 328.115 53.7159 328.49 52.9403C328.865 52.1648 329.053 51.2827 329.053 50.294C329.053 49.3054 328.865 48.4276 328.49 47.6605C328.115 46.8935 327.523 46.2926 326.713 45.858C325.912 45.4233 324.855 45.206 323.543 45.206H318.583V68H314.632ZM336.368 45.2188V41.8182H356.631V45.2188H348.462V68H344.525V45.2188H336.368ZM382.727 54.9091C382.727 57.7045 382.215 60.108 381.193 62.1193C380.17 64.1222 378.768 65.6648 376.987 66.7472C375.214 67.821 373.198 68.358 370.94 68.358C368.673 68.358 366.649 67.821 364.867 66.7472C363.095 65.6648 361.697 64.1179 360.674 62.1065C359.651 60.0952 359.14 57.696 359.14 54.9091C359.14 52.1136 359.651 49.7145 360.674 47.7116C361.697 45.7003 363.095 44.1577 364.867 43.0838C366.649 42.0014 368.673 41.4602 370.94 41.4602C373.198 41.4602 375.214 42.0014 376.987 43.0838C378.768 44.1577 380.17 45.7003 381.193 47.7116C382.215 49.7145 382.727 52.1136 382.727 54.9091ZM378.815 54.9091C378.815 52.7784 378.47 50.9844 377.779 49.527C377.097 48.0611 376.16 46.9531 374.967 46.2031C373.782 45.4446 372.44 45.0653 370.94 45.0653C369.431 45.0653 368.085 45.4446 366.9 46.2031C365.715 46.9531 364.778 48.0611 364.088 49.527C363.406 50.9844 363.065 52.7784 363.065 54.9091C363.065 57.0398 363.406 58.8381 364.088 60.304C364.778 61.7614 365.715 62.8693 366.9 63.6278C368.085 64.3778 369.431 64.7528 370.94 64.7528C372.44 64.7528 373.782 64.3778 374.967 63.6278C376.16 62.8693 377.097 61.7614 377.779 60.304C378.47 58.8381 378.815 57.0398 378.815 54.9091Z" fill="white"/>
    </g>
    <defs>
    <linearGradient id="paint0_linear_69_3" x1="18.9492" y1="46.9777" x2="47.6411" y2="22.9411" gradientUnits="userSpaceOnUse">
    <stop stop-color="#FFF7AE"/>
    <stop offset="0.17" stop-color="#FFFACF"/>
    <stop offset="0.37" stop-color="#9B6326"/>
    <stop offset="0.38" stop-color="#FFF7AE"/>
    <stop offset="0.53" stop-color="#D3C175"/>
    <stop offset="0.69" stop-color="#FCEEC4"/>
    <stop offset="0.7" stop-color="#B78626"/>
    <stop offset="0.82" stop-color="#FFFACF"/>
    <stop offset="1" stop-color="#9B6326"/>
    </linearGradient>
    <linearGradient id="paint1_linear_69_3" x1="1.04269e-06" y1="57.8414" x2="41.4448" y2="40.348" gradientUnits="userSpaceOnUse">
    <stop stop-color="#FFF7AE"/>
    <stop offset="0.17" stop-color="#FFFACF"/>
    <stop offset="0.37" stop-color="#9B6326"/>
    <stop offset="0.38" stop-color="#FFF7AE"/>
    <stop offset="0.53" stop-color="#D3C175"/>
    <stop offset="0.69" stop-color="#FCEEC4"/>
    <stop offset="0.7" stop-color="#B78626"/>
    <stop offset="0.82" stop-color="#FFFACF"/>
    <stop offset="1" stop-color="#9B6326"/>
    </linearGradient>
    <linearGradient id="paint2_linear_69_3" x1="2.91797" y1="105.947" x2="59.078" y2="49.027" gradientUnits="userSpaceOnUse">
    <stop stop-color="#FFF7AE"/>
    <stop offset="0.17" stop-color="#FFFACF"/>
    <stop offset="0.37" stop-color="#9B6326"/>
    <stop offset="0.38" stop-color="#FFF7AE"/>
    <stop offset="0.53" stop-color="#D3C175"/>
    <stop offset="0.69" stop-color="#FCEEC4"/>
    <stop offset="0.7" stop-color="#B78626"/>
    <stop offset="0.82" stop-color="#FFFACF"/>
    <stop offset="1" stop-color="#9B6326"/>
    </linearGradient>
    <linearGradient id="paint3_linear_69_3" x1="22.5625" y1="94.8057" x2="50.4714" y2="79.6618" gradientUnits="userSpaceOnUse">
    <stop stop-color="#FFF7AE"/>
    <stop offset="0.17" stop-color="#FFFACF"/>
    <stop offset="0.37" stop-color="#9B6326"/>
    <stop offset="0.38" stop-color="#FFF7AE"/>
    <stop offset="0.53" stop-color="#D3C175"/>
    <stop offset="0.69" stop-color="#FCEEC4"/>
    <stop offset="0.7" stop-color="#B78626"/>
    <stop offset="0.82" stop-color="#FFFACF"/>
    <stop offset="1" stop-color="#9B6326"/>
    </linearGradient>
    </defs>
    </svg>
    