<svg width="126" height="111" viewBox="0 0 126 111" fill="none" xmlns="http://www.w3.org/2000/svg">
<g clip-path="url(#clip0_606_12280)">
<path d="M11.7762 54.0793C12.1614 54.0793 12.4737 53.7643 12.4737 53.3757C12.4737 52.9871 12.1614 52.6721 11.7762 52.6721C11.3909 52.6721 11.0786 52.9871 11.0786 53.3757C11.0786 53.7643 11.3909 54.0793 11.7762 54.0793Z" fill="#CDA954"/>
<path d="M49.0789 24.1657C49.4642 24.1657 49.7765 23.8507 49.7765 23.4621C49.7765 23.0735 49.4642 22.7585 49.0789 22.7585C48.6937 22.7585 48.3813 23.0735 48.3813 23.4621C48.3813 23.8507 48.6937 24.1657 49.0789 24.1657Z" fill="#CDA954"/>
<path d="M88.722 35.2037C89.1072 35.2037 89.4195 34.8887 89.4195 34.5001C89.4195 34.1115 89.1072 33.7965 88.722 33.7965C88.3367 33.7965 88.0244 34.1115 88.0244 34.5001C88.0244 34.8887 88.3367 35.2037 88.722 35.2037Z" fill="#CDA954"/>
<path d="M90.3597 68.1984C90.7449 68.1984 91.0572 67.8834 91.0572 67.4948C91.0572 67.1063 90.7449 66.7913 90.3597 66.7913C89.9744 66.7913 89.6621 67.1063 89.6621 67.4948C89.6621 67.8834 89.9744 68.1984 90.3597 68.1984Z" fill="#CDA954"/>
<path opacity="0.5" d="M12.472 84.9367C12.8572 84.9367 13.1695 84.6217 13.1695 84.2331C13.1695 83.8445 12.8572 83.5295 12.472 83.5295C12.0867 83.5295 11.7744 83.8445 11.7744 84.2331C11.7744 84.6217 12.0867 84.9367 12.472 84.9367Z" fill="#CDA954"/>
<path opacity="0.5" d="M118.709 71.2338C119.095 71.2338 119.407 70.9188 119.407 70.5302C119.407 70.1417 119.095 69.8267 118.709 69.8267C118.324 69.8267 118.012 70.1417 118.012 70.5302C118.012 70.9188 118.324 71.2338 118.709 71.2338Z" fill="#CDA954"/>
<path d="M125.4 98.2892H0.600098C0.600098 63.5186 28.5401 35.3394 62.9982 35.3394C97.4563 35.3394 125.4 63.5186 125.4 98.2892Z" fill="#171A23"/>
<path d="M73.6641 91.2671C73.6641 91.2671 82.9575 78.1922 83.6832 59.1444C84.1107 47.9627 71.699 59.761 71.699 59.761L58.3853 73.1404C58.3853 73.1404 64.7308 91.9064 73.6641 91.2671Z" fill="#282B36"/>
<path d="M23.3591 97.8054C23.3591 97.8054 48.1901 96.3774 66.3173 94.4728C66.3173 94.4728 80.9286 93.652 69.9533 80.6887C69.9533 80.6887 81.7087 74.6647 83.4076 58.7604C83.4076 58.7604 83.1957 53.9752 82.9819 50.1906L81.0711 28.5498L17.6904 34.0952L23.3591 97.8054Z" fill="#121319" stroke="#C7D2E0" stroke-width="2" stroke-miterlimit="10"/>
</g>
<path d="M33.2188 91.0952L65.8369 2.17188L77.7497 3.60151L81.7206 90.8092L33.2188 91.0952Z" fill="url(#paint0_linear_606_12280)"/>
<path fill-rule="evenodd" clip-rule="evenodd" d="M65.9473 1.70447C65.8462 4.80027 68.1139 7.51048 71.2212 7.88056C74.3285 8.25064 77.1603 6.14779 77.7777 3.11348L65.9473 1.70447Z" fill="#CDA954"/>
<path d="M99.8738 98.2433V13.6989C99.8738 9.14697 96.4751 5.31168 91.9562 4.76422L65.8374 1.59998" stroke="#4A5568" stroke-width="2" stroke-linecap="round"/>
<defs>
<linearGradient id="paint0_linear_606_12280" x1="73.3144" y1="6.80439" x2="75.6884" y2="79.6625" gradientUnits="userSpaceOnUse">
<stop stop-color="#CDA954" stop-opacity="0.51"/>
<stop offset="1" stop-color="#121319" stop-opacity="0"/>
</linearGradient>
<clipPath id="clip0_606_12280">
<rect width="124.8" height="87.6414" fill="white" transform="translate(0.600098 22.7585)"/>
</clipPath>
</defs>
</svg>
