<svg width="152" height="42" viewBox="0 0 152 42" fill="none" xmlns="http://www.w3.org/2000/svg">
<g clip-path="url(#clip0_38_32)">
<mask id="mask0_38_32" style="mask-type:luminance" maskUnits="userSpaceOnUse" x="0" y="0" width="152" height="42">
<path d="M151.2 0H0V41.6667H151.2V0Z" fill="white"/>
</mask>
<g mask="url(#mask0_38_32)">
<path d="M9.87322 14.8817V17.9368C10.5585 17.8182 11.2629 17.7525 11.9825 17.7525C12.5577 17.7525 13.1226 17.7949 13.6769 17.8715V14.8817H16.5572L14.227 10.8452L11.8958 6.80957L9.56654 10.8452L7.23535 14.8817H9.87322Z" fill="url(#paint0_linear_38_32)"/>
<path d="M2.63882 22.0849C3.68177 20.8448 4.9757 19.818 6.44108 19.0746V8.07267H9.32182L6.99113 4.03658L4.66043 0L2.33117 4.03658L0 8.07267H2.63882V22.0849Z" fill="url(#paint1_linear_38_32)"/>
<path d="M11.9815 19.0076C5.98043 19.0076 1.11426 23.808 1.11426 29.73C1.11426 35.6524 5.98089 40.4526 11.9815 40.4526C17.9844 40.4526 22.8491 35.6524 22.8491 29.73C22.8491 23.808 17.9844 19.0076 11.9815 19.0076ZM11.9815 38.1698C7.25769 38.1698 3.42828 34.3909 3.42828 29.73C3.42828 25.0691 7.25769 21.2897 11.9815 21.2897C16.7072 21.2897 20.5365 25.0686 20.5365 29.73C20.5365 34.3914 16.7072 38.1698 11.9815 38.1698Z" fill="url(#paint2_linear_38_32)"/>
<path d="M14.7301 29.8017C14.4786 29.5536 14.1538 29.3431 13.7552 29.1702C13.5466 29.0807 13.1204 28.9564 12.4761 28.7978V25.1579C12.8932 25.2417 13.2209 25.416 13.4595 25.6799C13.7 25.9437 13.8562 26.3252 13.9324 26.82L15.2558 26.6229C15.142 25.8233 14.8058 25.1951 14.2462 24.736C13.8095 24.376 13.2195 24.1622 12.4756 24.0912V23.4883H11.7222V24.0912C10.8735 24.175 10.234 24.406 9.80247 24.7784C9.15765 25.3346 8.8362 26.0619 8.8362 26.96C8.8362 27.4653 8.94525 27.9168 9.16624 28.314C9.38671 28.7106 9.7001 29.0226 10.1087 29.2469C10.6578 29.5507 11.196 29.7517 11.7227 29.8503V33.8687C11.2197 33.8183 10.7887 33.5678 10.4278 33.1191C10.1773 32.8006 10.002 32.3029 9.90201 31.6243L8.61475 31.8629C8.66286 32.5172 8.83238 33.071 9.12291 33.5254C9.4153 33.9788 9.76104 34.3078 10.162 34.5117C10.5621 34.7141 11.0821 34.856 11.7222 34.9355V36.1985H12.4756V34.9212C13.3714 34.8793 14.1014 34.566 14.6658 33.9807C15.2292 33.3968 15.5116 32.6686 15.5116 31.7938C15.5116 31.3957 15.4435 31.0275 15.3082 30.6851C15.1744 30.3437 14.9811 30.0489 14.7301 29.8017ZM11.7231 28.6364C11.1397 28.4644 10.7259 28.232 10.483 27.942C10.2387 27.6525 10.1168 27.2924 10.1168 26.8624C10.1168 26.4281 10.2592 26.0504 10.5464 25.7337C10.833 25.4146 11.2255 25.2184 11.7231 25.1432V28.6364ZM13.7095 33.2311C13.3852 33.5973 12.9747 33.8087 12.4765 33.8692V30.026C13.1628 30.246 13.6209 30.4941 13.8514 30.7728C14.0819 31.0509 14.1967 31.4195 14.1967 31.8781C14.1962 32.4153 14.0343 32.8663 13.7095 33.2311Z" fill="url(#paint3_linear_38_32)"/>
<path d="M36.8564 15.2935C38.0662 15.2935 39.0206 15.593 39.7193 16.192C40.4184 16.791 40.7678 17.6544 40.7678 18.7819C40.7678 19.8742 40.4211 20.7288 39.7281 21.3454C39.0351 21.962 38.078 22.2704 36.8564 22.2704H34.0727V27.7673H32.3813V15.2935H36.8564ZM36.3631 20.7904C37.244 20.7904 37.8988 20.6289 38.3276 20.3059C38.7563 19.9829 38.9705 19.4749 38.9705 18.7819C38.9705 17.4429 38.1015 16.7734 36.3631 16.7734H34.0727V20.7904H36.3631ZM44.5203 15.2935V26.1817H50.2464V27.7673H42.8292V15.2935H44.5203ZM57.4169 15.2935L62.7555 27.7673H60.7823L59.5314 24.6841H53.5938L52.3605 27.7673H50.3873L55.8843 15.2935H57.4169ZM54.1929 23.2042H58.9148L56.5892 17.4781H56.5536L54.1929 23.2042ZM62.8082 15.2935L66.2087 20.7728L69.7149 15.2935H71.776L67.0544 22.4466V27.7673H65.363V22.4466L60.6414 15.2935H62.8082ZM85.9414 15.2935V16.8791H79.7926V20.7904H85.5184V22.3761H79.7926V27.7673H78.1012V15.2935H85.9414ZM93.9401 14.9763C95.7958 14.9763 97.3433 15.593 98.5827 16.8263C99.8217 18.0596 100.441 19.6276 100.441 21.5304C100.441 22.7402 100.165 23.8472 99.6132 24.8515C99.0611 25.8557 98.2829 26.6456 97.2788 27.2212C96.2746 27.7967 95.1616 28.0844 93.9401 28.0844C92.7302 28.0844 91.6263 27.7996 90.6279 27.2299C89.6294 26.6603 88.8482 25.8733 88.2846 24.8691C87.7207 23.8648 87.4389 22.7519 87.4389 21.5304C87.4389 19.6746 88.0468 18.1182 89.2625 16.8615C90.4782 15.6048 92.0372 14.9763 93.9401 14.9763ZM89.2361 21.5304C89.2361 22.9399 89.6764 24.1203 90.5572 25.0717C91.4385 26.0231 92.566 26.4988 93.9401 26.4988C95.291 26.4988 96.4124 26.029 97.3051 25.0893C98.1978 24.1497 98.6441 22.9633 98.6441 21.5304C98.6441 20.1092 98.2039 18.9258 97.3227 17.9803C96.4418 17.0347 95.3086 16.562 93.9226 16.562C92.5835 16.562 91.4679 17.0318 90.5752 17.9715C89.6821 18.9111 89.2361 20.0975 89.2361 21.5304ZM107.348 15.2935C108.569 15.2935 109.527 15.5988 110.22 16.2096C110.912 16.8204 111.259 17.6779 111.259 18.7819C111.259 19.6159 110.974 20.3441 110.405 20.9666C109.835 21.5891 109.104 21.9591 108.211 22.0766H108.193L111.735 27.7673H109.621L106.449 22.2704H104.564V27.7673H102.873V15.2935H107.348ZM106.854 20.7904C107.735 20.7904 108.39 20.6289 108.819 20.3059C109.248 19.9829 109.462 19.4749 109.462 18.7819C109.462 17.4429 108.593 16.7734 106.854 16.7734H104.564V20.7904H106.854ZM125.389 17.5839L122.376 27.7673H120.597L116.95 15.2935H118.712L121.46 25.2655H121.495L124.437 15.2935H126.376L129.318 25.2655H129.353L132.102 15.2935H133.863L130.234 27.7673H128.455L125.424 17.5839H125.389ZM137.176 15.2935V27.7673H135.484V15.2935H137.176ZM142.602 15.2935L149.473 25.5474H149.508V15.2935H151.2V27.7673H149.051L142.109 17.5134H142.074V27.7673H140.382V15.2935H142.602Z" fill="#242F64"/>
</g>
</g>
<defs>
<linearGradient id="paint0_linear_38_32" x1="7.23535" y1="17.9368" x2="18.1904" y2="8.75917" gradientUnits="userSpaceOnUse">
<stop stop-color="#FFF7AE"/>
<stop offset="0.17" stop-color="#FFFACF"/>
<stop offset="0.37" stop-color="#9B6326"/>
<stop offset="0.38" stop-color="#FFF7AE"/>
<stop offset="0.53" stop-color="#D3C175"/>
<stop offset="0.69" stop-color="#FCEEC4"/>
<stop offset="0.7" stop-color="#B78626"/>
<stop offset="0.82" stop-color="#FFFACF"/>
<stop offset="1" stop-color="#9B6326"/>
</linearGradient>
<linearGradient id="paint1_linear_38_32" x1="3.98117e-07" y1="22.0849" x2="15.8244" y2="15.4056" gradientUnits="userSpaceOnUse">
<stop stop-color="#FFF7AE"/>
<stop offset="0.17" stop-color="#FFFACF"/>
<stop offset="0.37" stop-color="#9B6326"/>
<stop offset="0.38" stop-color="#FFF7AE"/>
<stop offset="0.53" stop-color="#D3C175"/>
<stop offset="0.69" stop-color="#FCEEC4"/>
<stop offset="0.7" stop-color="#B78626"/>
<stop offset="0.82" stop-color="#FFFACF"/>
<stop offset="1" stop-color="#9B6326"/>
</linearGradient>
<linearGradient id="paint2_linear_38_32" x1="1.11426" y1="40.4526" x2="22.5572" y2="18.7195" gradientUnits="userSpaceOnUse">
<stop stop-color="#FFF7AE"/>
<stop offset="0.17" stop-color="#FFFACF"/>
<stop offset="0.37" stop-color="#9B6326"/>
<stop offset="0.38" stop-color="#FFF7AE"/>
<stop offset="0.53" stop-color="#D3C175"/>
<stop offset="0.69" stop-color="#FCEEC4"/>
<stop offset="0.7" stop-color="#B78626"/>
<stop offset="0.82" stop-color="#FFFACF"/>
<stop offset="1" stop-color="#9B6326"/>
</linearGradient>
<linearGradient id="paint3_linear_38_32" x1="8.61475" y1="36.1985" x2="19.2709" y2="30.4163" gradientUnits="userSpaceOnUse">
<stop stop-color="#FFF7AE"/>
<stop offset="0.17" stop-color="#FFFACF"/>
<stop offset="0.37" stop-color="#9B6326"/>
<stop offset="0.38" stop-color="#FFF7AE"/>
<stop offset="0.53" stop-color="#D3C175"/>
<stop offset="0.69" stop-color="#FCEEC4"/>
<stop offset="0.7" stop-color="#B78626"/>
<stop offset="0.82" stop-color="#FFFACF"/>
<stop offset="1" stop-color="#9B6326"/>
</linearGradient>
<clipPath id="clip0_38_32">
<rect width="151.2" height="42" fill="white"/>
</clipPath>
</defs>
</svg>
