<svg width="17" height="17" viewBox="0 0 17 17" fill="none" xmlns="http://www.w3.org/2000/svg">
<path d="M15.5335 9.93331C15.3213 9.93331 15.1178 10.0176 14.9678 10.1676C14.8178 10.3177 14.7335 10.5211 14.7335 10.7333V13.9333C14.7335 14.1455 14.6492 14.349 14.4992 14.499C14.3492 14.649 14.1457 14.7333 13.9335 14.7333H2.7335C2.52132 14.7333 2.31784 14.649 2.16781 14.499C2.01778 14.349 1.9335 14.1455 1.9335 13.9333V10.7333C1.9335 10.5211 1.84921 10.3177 1.69918 10.1676C1.54915 10.0176 1.34567 9.93331 1.1335 9.93331C0.921323 9.93331 0.71784 10.0176 0.567811 10.1676C0.417782 10.3177 0.333496 10.5211 0.333496 10.7333V13.9333C0.333496 14.5698 0.586353 15.1803 1.03644 15.6304C1.48653 16.0805 2.09698 16.3333 2.7335 16.3333H13.9335C14.57 16.3333 15.1805 16.0805 15.6306 15.6304C16.0806 15.1803 16.3335 14.5698 16.3335 13.9333V10.7333C16.3335 10.5211 16.2492 10.3177 16.0992 10.1676C15.9492 10.0176 15.7457 9.93331 15.5335 9.93331ZM7.7655 11.3013C7.84158 11.3741 7.9313 11.4312 8.0295 11.4693C8.12526 11.5116 8.2288 11.5335 8.3335 11.5335C8.43819 11.5335 8.54174 11.5116 8.6375 11.4693C8.7357 11.4312 8.82541 11.3741 8.9015 11.3013L12.1015 8.10131C12.2521 7.95067 12.3368 7.74635 12.3368 7.53331C12.3368 7.32027 12.2521 7.11596 12.1015 6.96531C11.9509 6.81467 11.7465 6.73004 11.5335 6.73004C11.3205 6.73004 11.1161 6.81467 10.9655 6.96531L9.1335 8.80531V1.13331C9.1335 0.92114 9.04921 0.717657 8.89918 0.567628C8.74915 0.417598 8.54567 0.333313 8.3335 0.333313C8.12132 0.333313 7.91784 0.417598 7.76781 0.567628C7.61778 0.717657 7.5335 0.92114 7.5335 1.13331V8.80531L5.7015 6.96531C5.62691 6.89072 5.53835 6.83155 5.4409 6.79119C5.34344 6.75082 5.23898 6.73004 5.1335 6.73004C5.02801 6.73004 4.92355 6.75082 4.8261 6.79119C4.72864 6.83155 4.64009 6.89072 4.5655 6.96531C4.49091 7.0399 4.43174 7.12846 4.39137 7.22591C4.351 7.32337 4.33022 7.42783 4.33022 7.53331C4.33022 7.6388 4.351 7.74326 4.39137 7.84071C4.43174 7.93817 4.49091 8.02672 4.5655 8.10131L7.7655 11.3013Z" fill="white"/>
</svg>
